<?xml version="1.0" encoding="us-ascii" standalone="no"?><svg xmlns="http://www.w3.org/2000/svg" xmlns:xlink="http://www.w3.org/1999/xlink" contentStyleType="text/css" height="138px" preserveAspectRatio="none" style="width:469px;height:138px;background:#FFFFFF;" version="1.1" viewBox="0 0 469 138" width="469px" zoomAndPan="magnify"><defs/><g><!--cluster Sistema de Reconhecimento Facial - Aluno--><g id="cluster_Sistema de Reconhecimento Facial - Aluno"><path d="M92.5,6 L437.5,6 A3.75,3.75 0 0 1 440,8.5 L447,28.2969 L459.5,28.2969 A2.5,2.5 0 0 1 462,30.7969 L462,128.5 A2.5,2.5 0 0 1 459.5,131 L92.5,131 A2.5,2.5 0 0 1 90,128.5 L90,8.5 A2.5,2.5 0 0 1 92.5,6 " fill="none" style="stroke:#000000;stroke-width:1.5;"/><line style="stroke:#000000;stroke-width:1.5;" x1="90" x2="447" y1="28.2969" y2="28.2969"/><text fill="#000000" font-family="sans-serif" font-size="14" font-weight="bold" lengthAdjust="spacing" textLength="344" x="94" y="20.9951">Sistema de Reconhecimento Facial - Aluno</text></g><g id="elem_UC8"><ellipse cx="276.0447" cy="77.9089" fill="#F1F1F1" rx="170.0447" ry="36.4089" style="stroke:#181818;stroke-width:0.5;"/><text fill="#000000" font-family="sans-serif" font-size="14" lengthAdjust="spacing" textLength="312" x="120.0447" y="80.7556">Marcar Presen&#231;a via Reconhecimento Facial</text></g><!--entity Aluno--><g id="elem_Aluno"><ellipse cx="26" cy="48.5" fill="#F1F1F1" rx="8" ry="8" style="stroke:#181818;stroke-width:0.5;"/><path d="M26,56.5 L26,83.5 M13,64.5 L39,64.5 M26,83.5 L13,98.5 M26,83.5 L39,98.5 " fill="none" style="stroke:#181818;stroke-width:0.5;"/><text fill="#000000" font-family="sans-serif" font-size="14" lengthAdjust="spacing" textLength="40" x="6" y="112.9951">Aluno</text></g><!--link Aluno to UC8--><g id="link_Aluno_UC8"><path d="M46.0484,78 C60.453,78 75.7984,78 99.7549,78 " fill="none" id="Aluno-to-UC8" style="stroke:#181818;stroke-width:1.0;"/><polygon fill="#181818" points="105.7549,78,96.7549,74,100.7549,78,96.7549,82,105.7549,78" style="stroke:#181818;stroke-width:1.0;"/></g><!--SRC=[RSmn2W8n44RXVaxnapwzbI22dI2A1nXcnzt1R2AJx3RYUJo85tFLrlR1zv9U6bg1MpyqTEOgpKecbbOScpJbGdHZkNAl22UhJKT6fpYgb3oesAXvyJiMuuJu8m5t0gQgmdLXUtPXny6rQduz6RFn_q40LvotAteGVK-8SVq9Rm00]--></g></svg>