<?xml version="1.0" encoding="us-ascii" standalone="no"?><svg xmlns="http://www.w3.org/2000/svg" xmlns:xlink="http://www.w3.org/1999/xlink" contentStyleType="text/css" height="628px" preserveAspectRatio="none" style="width:592px;height:628px;background:#FFFFFF;" version="1.1" viewBox="0 0 592 628" width="592px" zoomAndPan="magnify"><defs/><g><!--cluster Sistema de Reconhecimento Facial - Admin--><g id="cluster_Sistema de Reconhecimento Facial - Admin"><path d="M222.5,6 L572.5,6 A3.75,3.75 0 0 1 575,8.5 L582,28.2969 L582.5,28.2969 A2.5,2.5 0 0 1 585,30.7969 L585,618.5 A2.5,2.5 0 0 1 582.5,621 L222.5,621 A2.5,2.5 0 0 1 220,618.5 L220,8.5 A2.5,2.5 0 0 1 222.5,6 " fill="none" style="stroke:#000000;stroke-width:1.5;"/><line style="stroke:#000000;stroke-width:1.5;" x1="220" x2="582" y1="28.2969" y2="28.2969"/><text fill="#000000" font-family="sans-serif" font-size="14" font-weight="bold" lengthAdjust="spacing" textLength="349" x="224" y="20.9951">Sistema de Reconhecimento Facial - Admin</text></g><g id="elem_UC1"><ellipse cx="401.8073" cy="226.8615" fill="#F1F1F1" rx="72.3073" ry="16.8615" style="stroke:#181818;stroke-width:0.5;"/><text fill="#000000" font-family="sans-serif" font-size="14" lengthAdjust="spacing" textLength="99" x="349.3073" y="230.609">Auto Registro</text></g><g id="elem_UC2"><ellipse cx="402.113" cy="295.1226" fill="#F1F1F1" rx="66.113" ry="15.6226" style="stroke:#181818;stroke-width:0.5;"/><text fill="#000000" font-family="sans-serif" font-size="14" lengthAdjust="spacing" textLength="82" x="358.113" y="298.8702">Fazer Login</text></g><g id="elem_UC3"><ellipse cx="401.8679" cy="65.1736" fill="#F1F1F1" rx="106.3679" ry="23.6736" style="stroke:#181818;stroke-width:0.5;"/><text fill="#000000" font-family="sans-serif" font-size="14" lengthAdjust="spacing" textLength="178" x="312.8679" y="68.0203">Cadastrar Novos Usu&#225;rios</text></g><g id="elem_UC4"><ellipse cx="402.1614" cy="148.9323" fill="#F1F1F1" rx="115.1614" ry="25.4323" style="stroke:#181818;stroke-width:0.5;"/><text fill="#000000" font-family="sans-serif" font-size="14" lengthAdjust="spacing" textLength="197" x="303.6614" y="151.779">Cadastrar Faces de Usu&#225;rios</text></g><g id="elem_UC5"><ellipse cx="401.9504" cy="363.0901" fill="#F1F1F1" rx="73.4504" ry="17.0901" style="stroke:#181818;stroke-width:0.5;"/><text fill="#000000" font-family="sans-serif" font-size="14" lengthAdjust="spacing" textLength="102" x="347.9504" y="366.8376">Listar Usu&#225;rios</text></g><g id="elem_UC6"><ellipse cx="402.0567" cy="436.0113" fill="#F1F1F1" rx="90.5567" ry="20.5113" style="stroke:#181818;stroke-width:0.5;"/><text fill="#000000" font-family="sans-serif" font-size="14" lengthAdjust="spacing" textLength="143" x="330.5567" y="438.858">Visualizar Presen&#231;as</text></g><g id="elem_UC7"><ellipse cx="401.9128" cy="511.9826" fill="#F1F1F1" rx="87.9128" ry="19.9826" style="stroke:#181818;stroke-width:0.5;"/><text fill="#000000" font-family="sans-serif" font-size="14" lengthAdjust="spacing" textLength="137" x="333.4128" y="514.8292">Consultar Presen&#231;a</text></g><g id="elem_UC8"><ellipse cx="402.1963" cy="585.9393" fill="#F1F1F1" rx="80.1963" ry="18.4393" style="stroke:#181818;stroke-width:0.5;"/><text fill="#000000" font-family="sans-serif" font-size="14" lengthAdjust="spacing" textLength="119" x="341.1039" y="589.2979">Alterar Presen&#231;a</text></g><!--entity Administrador--><g id="elem_Administrador"><ellipse cx="57" cy="300.5" fill="#F1F1F1" rx="8" ry="8" style="stroke:#181818;stroke-width:0.5;"/><path d="M57,308.5 L57,335.5 M44,316.5 L70,316.5 M57,335.5 L44,350.5 M57,335.5 L70,350.5 " fill="none" style="stroke:#181818;stroke-width:0.5;"/><text fill="#000000" font-family="sans-serif" font-size="14" lengthAdjust="spacing" textLength="102" x="6" y="364.9951">Administrador</text></g><!--link Administrador to UC1--><g id="link_Administrador_UC1"><path d="M108.07,304.831 C117.926,300.093 128.237,295.284 138,291 C170.346,276.805 178.035,271.704 212,262 C253.712,250.082 295.8709,242.1688 333.1009,236.3548 " fill="none" id="Administrador-to-UC1" style="stroke:#181818;stroke-width:1.0;"/><polygon fill="#181818" points="339.029,235.429,329.5196,232.8655,334.0889,236.2005,330.754,240.7697,339.029,235.429" style="stroke:#181818;stroke-width:1.0;"/></g><!--link Administrador to UC2--><g id="link_Administrador_UC2"><path d="M108.346,324.231 C118.177,323.134 128.41,322.013 138,321 C207.469,313.659 281.3585,306.4265 334.6805,301.3065 " fill="none" id="Administrador-to-UC2" style="stroke:#181818;stroke-width:1.0;"/><polygon fill="#181818" points="340.653,300.733,331.3119,297.6115,335.6759,301.2109,332.0765,305.5749,340.653,300.733" style="stroke:#181818;stroke-width:1.0;"/></g><!--link Administrador to UC3--><g id="link_Administrador_UC3"><path d="M69.2787,291.928 C81.6728,254.782 104.3945,198.157 138,158 C179.105,108.881 242.0368,86.8243 298.9698,75.8833 " fill="none" id="Administrador-to-UC3" style="stroke:#181818;stroke-width:1.0;"/><polygon fill="#181818" points="304.862,74.751,295.2688,72.5214,299.9518,75.6946,296.7786,80.3776,304.862,74.751" style="stroke:#181818;stroke-width:1.0;"/><text fill="#000000" font-family="sans-serif" font-size="13" lengthAdjust="spacing" textLength="64" x="139" y="90.0669">Depois de</text><text fill="#000000" font-family="sans-serif" font-size="13" lengthAdjust="spacing" textLength="43" x="149.5" y="105.1997">logado</text></g><!--link Administrador to UC4--><g id="link_Administrador_UC4"><path d="M89.5922,291.861 C118.149,260.103 163.107,216.422 212,193 C240.864,179.172 268.4686,170.8164 299.1496,164.1804 " fill="none" id="Administrador-to-UC4" style="stroke:#181818;stroke-width:1.0;"/><polygon fill="#181818" points="305.014,162.912,295.3718,160.905,300.127,163.969,297.063,168.7242,305.014,162.912" style="stroke:#181818;stroke-width:1.0;"/><text fill="#000000" font-family="sans-serif" font-size="13" lengthAdjust="spacing" textLength="64" x="139" y="179.0669">Depois de</text><text fill="#000000" font-family="sans-serif" font-size="13" lengthAdjust="spacing" textLength="43" x="149.5" y="194.1997">logado</text></g><!--link Administrador to UC5--><g id="link_Administrador_UC5"><path d="M108.182,349.503 C117.937,352.558 128.183,355.273 138,357 C202.547,368.356 271.3722,369.0622 324.6682,367.3182 " fill="none" id="Administrador-to-UC5" style="stroke:#181818;stroke-width:1.0;"/><polygon fill="#181818" points="330.665,367.122,321.539,363.4185,325.6677,367.2855,321.8006,371.4142,330.665,367.122" style="stroke:#181818;stroke-width:1.0;"/><text fill="#000000" font-family="sans-serif" font-size="13" lengthAdjust="spacing" textLength="64" x="139" y="338.0669">Depois de</text><text fill="#000000" font-family="sans-serif" font-size="13" lengthAdjust="spacing" textLength="43" x="149.5" y="353.1997">logado</text></g><!--link Administrador to UC6--><g id="link_Administrador_UC6"><path d="M89.8508,368.151 C103.2769,381.701 119.974,395.651 138,404 C192.258,429.132 253.2339,436.8038 306.0159,438.4518 " fill="none" id="Administrador-to-UC6" style="stroke:#181818;stroke-width:1.0;"/><polygon fill="#181818" points="312.013,438.639,303.1422,434.3601,307.0154,438.483,302.8926,442.3562,312.013,438.639" style="stroke:#181818;stroke-width:1.0;"/><text fill="#000000" font-family="sans-serif" font-size="13" lengthAdjust="spacing" textLength="64" x="139" y="385.0669">Depois de</text><text fill="#000000" font-family="sans-serif" font-size="13" lengthAdjust="spacing" textLength="43" x="149.5" y="400.1997">logado</text></g><!--link Administrador to UC7--><g id="link_Administrador_UC7"><path d="M70.7371,368.289 C83.0264,399.089 104.7193,440.91 138,464 C189.291,499.585 253.2921,510.7173 308.1771,513.5633 " fill="none" id="Administrador-to-UC7" style="stroke:#181818;stroke-width:1.0;"/><polygon fill="#181818" points="314.169,513.874,305.3882,509.4133,309.1757,513.6151,304.9739,517.4026,314.169,513.874" style="stroke:#181818;stroke-width:1.0;"/><text fill="#000000" font-family="sans-serif" font-size="13" lengthAdjust="spacing" textLength="64" x="139" y="445.0669">Depois de</text><text fill="#000000" font-family="sans-serif" font-size="13" lengthAdjust="spacing" textLength="43" x="149.5" y="460.1997">logado</text></g><!--link Administrador to UC8--><g id="link_Administrador_UC8"><path d="M61.9451,368.067 C68.8866,414.7 87.7141,492.7 138,535 C189.342,578.1885 260.3291,588.7812 317.7581,589.9018 " fill="none" id="Administrador-to-UC8" style="stroke:#181818;stroke-width:1.0;"/><polygon fill="#181818" points="323.757,590.0189,314.8367,585.8441,318.758,589.9214,314.6807,593.8426,323.757,590.0189" style="stroke:#181818;stroke-width:1.0;"/><text fill="#000000" font-family="sans-serif" font-size="13" lengthAdjust="spacing" textLength="64" x="139" y="516.0669">Depois de</text><text fill="#000000" font-family="sans-serif" font-size="13" lengthAdjust="spacing" textLength="43" x="149.5" y="531.1997">logado</text></g><!--SRC=[ZT7DJiCm30VmUvx2whq7zYqEIDFGJXD2Gt3YOgMcivR6Kv9o6E9XEF4WUp7ICgIs2bAlzi-EzO-Xjm11m75v252m8nrOh48TnC6wgDYo3muBSKgTK1-n9CYUOeqgX89WJrhiWJHNPEEUBMf60_dlQ0OV2g3sfD77iNKTnPxAPgDaW1wUDpTTiCKpETX9sOosxKctlS42csCSFCYxnBQlBr-EnL_nD8tZJUIRMuT-rlMxU5N4GpFlcXVsDHe-H_Veo9EzVECVNFGU5-jh4xhkofQzG4mWbq0hzQbKBtp8yxishLHrCgoslzcsfd0BztGIRW9ujKRAAFxdinI7vAFpCPjRkHWjbwFbAYL_0000]--></g></svg>