<?xml version="1.0" encoding="us-ascii" standalone="no"?><svg xmlns="http://www.w3.org/2000/svg" xmlns:xlink="http://www.w3.org/1999/xlink" contentStyleType="text/css" height="546px" preserveAspectRatio="none" style="width:523px;height:546px;background:#FFFFFF;" version="1.1" viewBox="0 0 523 546" width="523px" zoomAndPan="magnify"><defs/><g><!--cluster Back-End PHP Classes--><g id="cluster_Back-End PHP Classes"><path d="M8.5,6 L185.5,6 A3.75,3.75 0 0 1 188,8.5 L195,28.2969 L513.5,28.2969 A2.5,2.5 0 0 1 516,30.7969 L516,536.5 A2.5,2.5 0 0 1 513.5,539 L8.5,539 A2.5,2.5 0 0 1 6,536.5 L6,8.5 A2.5,2.5 0 0 1 8.5,6 " fill="none" style="stroke:#000000;stroke-width:1.5;"/><line style="stroke:#000000;stroke-width:1.5;" x1="6" x2="195" y1="28.2969" y2="28.2969"/><text fill="#000000" font-family="sans-serif" font-size="14" font-weight="bold" lengthAdjust="spacing" textLength="176" x="10" y="20.9951">Back-End PHP Classes</text></g><!--class UserController--><g id="elem_UserController"><rect codeLine="2" fill="#F1F1F1" height="129.4844" id="UserController" rx="2.5" ry="2.5" style="stroke:#181818;stroke-width:0.5;" width="136" x="306" y="41"/><ellipse cx="321" cy="57" fill="#ADD1B2" rx="11" ry="11" style="stroke:#181818;stroke-width:1.0;"/><path d="M323.3438,52.6719 C322.4063,52.2344 321.8125,52.0938 320.9375,52.0938 C318.3125,52.0938 316.3125,54.1719 316.3125,56.8906 L316.3125,58.0156 C316.3125,60.5938 318.4219,62.4844 321.3125,62.4844 C322.5313,62.4844 323.6875,62.1875 324.4375,61.6406 C325.0156,61.2344 325.3438,60.7813 325.3438,60.3906 C325.3438,59.9375 324.9531,59.5469 324.4844,59.5469 C324.2656,59.5469 324.0625,59.625 323.875,59.8125 C323.4219,60.2969 323.4219,60.2969 323.2344,60.3906 C322.8125,60.6563 322.125,60.7813 321.3594,60.7813 C319.3125,60.7813 318.0156,59.6875 318.0156,57.9844 L318.0156,56.8906 C318.0156,55.1094 319.2656,53.7969 321,53.7969 C321.5781,53.7969 322.1875,53.9531 322.6563,54.2031 C323.1406,54.4844 323.3125,54.7031 323.4063,55.1094 C323.4688,55.5156 323.5,55.6406 323.6406,55.7656 C323.7813,55.9063 324.0156,56.0156 324.2344,56.0156 C324.5,56.0156 324.7656,55.875 324.9375,55.6563 C325.0469,55.5 325.0781,55.3125 325.0781,54.8906 L325.0781,53.4688 C325.0781,53.0313 325.0625,52.9063 324.9688,52.75 C324.8125,52.4844 324.5313,52.3438 324.2344,52.3438 C323.9375,52.3438 323.7344,52.4375 323.5156,52.75 L323.3438,52.6719 Z " fill="#000000"/><text fill="#000000" font-family="sans-serif" font-size="14" lengthAdjust="spacing" textLength="104" x="335" y="61.8467">UserController</text><line style="stroke:#181818;stroke-width:0.5;" x1="307" x2="441" y1="73" y2="73"/><line style="stroke:#181818;stroke-width:0.5;" x1="307" x2="441" y1="81" y2="81"/><ellipse cx="317" cy="94.6484" fill="#84BE84" rx="3" ry="3" style="stroke:#038048;stroke-width:1.0;"/><text fill="#000000" font-family="sans-serif" font-size="14" lengthAdjust="spacing" textLength="52" x="326" y="97.9951">insert()</text><ellipse cx="317" cy="110.9453" fill="#84BE84" rx="3" ry="3" style="stroke:#038048;stroke-width:1.0;"/><text fill="#000000" font-family="sans-serif" font-size="14" lengthAdjust="spacing" textLength="67" x="326" y="114.292">register()</text><ellipse cx="317" cy="127.2422" fill="#84BE84" rx="3" ry="3" style="stroke:#038048;stroke-width:1.0;"/><text fill="#000000" font-family="sans-serif" font-size="14" lengthAdjust="spacing" textLength="45" x="326" y="130.5889">login()</text><ellipse cx="317" cy="143.5391" fill="#84BE84" rx="3" ry="3" style="stroke:#038048;stroke-width:1.0;"/><text fill="#000000" font-family="sans-serif" font-size="14" lengthAdjust="spacing" textLength="57" x="326" y="146.8857">search()</text><ellipse cx="317" cy="159.8359" fill="#84BE84" rx="3" ry="3" style="stroke:#038048;stroke-width:1.0;"/><text fill="#000000" font-family="sans-serif" font-size="14" lengthAdjust="spacing" textLength="57" x="326" y="163.1826">delete()</text></g><!--class PresencaController--><g id="elem_PresencaController"><rect codeLine="9" fill="#F1F1F1" height="113.1875" id="PresencaController" rx="2.5" ry="2.5" style="stroke:#181818;stroke-width:0.5;" width="170" x="80" y="49"/><ellipse cx="95" cy="65" fill="#ADD1B2" rx="11" ry="11" style="stroke:#181818;stroke-width:1.0;"/><path d="M97.3438,60.6719 C96.4063,60.2344 95.8125,60.0938 94.9375,60.0938 C92.3125,60.0938 90.3125,62.1719 90.3125,64.8906 L90.3125,66.0156 C90.3125,68.5938 92.4219,70.4844 95.3125,70.4844 C96.5313,70.4844 97.6875,70.1875 98.4375,69.6406 C99.0156,69.2344 99.3438,68.7813 99.3438,68.3906 C99.3438,67.9375 98.9531,67.5469 98.4844,67.5469 C98.2656,67.5469 98.0625,67.625 97.875,67.8125 C97.4219,68.2969 97.4219,68.2969 97.2344,68.3906 C96.8125,68.6563 96.125,68.7813 95.3594,68.7813 C93.3125,68.7813 92.0156,67.6875 92.0156,65.9844 L92.0156,64.8906 C92.0156,63.1094 93.2656,61.7969 95,61.7969 C95.5781,61.7969 96.1875,61.9531 96.6563,62.2031 C97.1406,62.4844 97.3125,62.7031 97.4063,63.1094 C97.4688,63.5156 97.5,63.6406 97.6406,63.7656 C97.7813,63.9063 98.0156,64.0156 98.2344,64.0156 C98.5,64.0156 98.7656,63.875 98.9375,63.6563 C99.0469,63.5 99.0781,63.3125 99.0781,62.8906 L99.0781,61.4688 C99.0781,61.0313 99.0625,60.9063 98.9688,60.75 C98.8125,60.4844 98.5313,60.3438 98.2344,60.3438 C97.9375,60.3438 97.7344,60.4375 97.5156,60.75 L97.3438,60.6719 Z " fill="#000000"/><text fill="#000000" font-family="sans-serif" font-size="14" lengthAdjust="spacing" textLength="138" x="109" y="69.8467">PresencaController</text><line style="stroke:#181818;stroke-width:0.5;" x1="81" x2="249" y1="81" y2="81"/><line style="stroke:#181818;stroke-width:0.5;" x1="81" x2="249" y1="89" y2="89"/><ellipse cx="91" cy="102.6484" fill="#84BE84" rx="3" ry="3" style="stroke:#038048;stroke-width:1.0;"/><text fill="#000000" font-family="sans-serif" font-size="14" lengthAdjust="spacing" textLength="133" x="100" y="105.9951">registerPresence()</text><ellipse cx="91" cy="118.9453" fill="#84BE84" rx="3" ry="3" style="stroke:#038048;stroke-width:1.0;"/><text fill="#000000" font-family="sans-serif" font-size="14" lengthAdjust="spacing" textLength="123" x="100" y="122.292">searchPresence()</text><ellipse cx="91" cy="135.2422" fill="#84BE84" rx="3" ry="3" style="stroke:#038048;stroke-width:1.0;"/><text fill="#000000" font-family="sans-serif" font-size="14" lengthAdjust="spacing" textLength="127" x="100" y="138.5889">updatePresence()</text><ellipse cx="91" cy="151.5391" fill="#84BE84" rx="3" ry="3" style="stroke:#038048;stroke-width:1.0;"/><text fill="#000000" font-family="sans-serif" font-size="14" lengthAdjust="spacing" textLength="123" x="100" y="154.8857">deletePresence()</text></g><!--class Conexao--><g id="elem_Conexao"><rect codeLine="15" fill="#F1F1F1" height="64.2969" id="Conexao" rx="2.5" ry="2.5" style="stroke:#181818;stroke-width:0.5;" width="123" x="203.5" y="353"/><ellipse cx="231.55" cy="369" fill="#ADD1B2" rx="11" ry="11" style="stroke:#181818;stroke-width:1.0;"/><path d="M233.8938,364.6719 C232.9563,364.2344 232.3625,364.0938 231.4875,364.0938 C228.8625,364.0938 226.8625,366.1719 226.8625,368.8906 L226.8625,370.0156 C226.8625,372.5938 228.9719,374.4844 231.8625,374.4844 C233.0813,374.4844 234.2375,374.1875 234.9875,373.6406 C235.5656,373.2344 235.8938,372.7813 235.8938,372.3906 C235.8938,371.9375 235.5031,371.5469 235.0344,371.5469 C234.8156,371.5469 234.6125,371.625 234.425,371.8125 C233.9719,372.2969 233.9719,372.2969 233.7844,372.3906 C233.3625,372.6563 232.675,372.7813 231.9094,372.7813 C229.8625,372.7813 228.5656,371.6875 228.5656,369.9844 L228.5656,368.8906 C228.5656,367.1094 229.8156,365.7969 231.55,365.7969 C232.1281,365.7969 232.7375,365.9531 233.2063,366.2031 C233.6906,366.4844 233.8625,366.7031 233.9563,367.1094 C234.0188,367.5156 234.05,367.6406 234.1906,367.7656 C234.3313,367.9063 234.5656,368.0156 234.7844,368.0156 C235.05,368.0156 235.3156,367.875 235.4875,367.6563 C235.5969,367.5 235.6281,367.3125 235.6281,366.8906 L235.6281,365.4688 C235.6281,365.0313 235.6125,364.9063 235.5188,364.75 C235.3625,364.4844 235.0813,364.3438 234.7844,364.3438 C234.4875,364.3438 234.2844,364.4375 234.0656,364.75 L233.8938,364.6719 Z " fill="#000000"/><text fill="#000000" font-family="sans-serif" font-size="14" lengthAdjust="spacing" textLength="62" x="248.45" y="373.8467">Conexao</text><line style="stroke:#181818;stroke-width:0.5;" x1="204.5" x2="325.5" y1="385" y2="385"/><line style="stroke:#181818;stroke-width:0.5;" x1="204.5" x2="325.5" y1="393" y2="393"/><ellipse cx="214.5" cy="406.6484" fill="#84BE84" rx="3" ry="3" style="stroke:#038048;stroke-width:1.0;"/><text fill="#000000" font-family="sans-serif" font-size="14" lengthAdjust="spacing" textLength="97" x="223.5" y="409.9951">getConexao()</text></g><!--class Users--><g id="elem_Users"><rect codeLine="18" fill="#F1F1F1" height="276.1563" id="Users" rx="2.5" ry="2.5" style="stroke:#181818;stroke-width:0.5;" width="138" x="362" y="247"/><ellipse cx="407.75" cy="263" fill="#ADD1B2" rx="11" ry="11" style="stroke:#181818;stroke-width:1.0;"/><path d="M410.0938,258.6719 C409.1563,258.2344 408.5625,258.0938 407.6875,258.0938 C405.0625,258.0938 403.0625,260.1719 403.0625,262.8906 L403.0625,264.0156 C403.0625,266.5938 405.1719,268.4844 408.0625,268.4844 C409.2813,268.4844 410.4375,268.1875 411.1875,267.6406 C411.7656,267.2344 412.0938,266.7813 412.0938,266.3906 C412.0938,265.9375 411.7031,265.5469 411.2344,265.5469 C411.0156,265.5469 410.8125,265.625 410.625,265.8125 C410.1719,266.2969 410.1719,266.2969 409.9844,266.3906 C409.5625,266.6563 408.875,266.7813 408.1094,266.7813 C406.0625,266.7813 404.7656,265.6875 404.7656,263.9844 L404.7656,262.8906 C404.7656,261.1094 406.0156,259.7969 407.75,259.7969 C408.3281,259.7969 408.9375,259.9531 409.4063,260.2031 C409.8906,260.4844 410.0625,260.7031 410.1563,261.1094 C410.2188,261.5156 410.25,261.6406 410.3906,261.7656 C410.5313,261.9063 410.7656,262.0156 410.9844,262.0156 C411.25,262.0156 411.5156,261.875 411.6875,261.6563 C411.7969,261.5 411.8281,261.3125 411.8281,260.8906 L411.8281,259.4688 C411.8281,259.0313 411.8125,258.9063 411.7188,258.75 C411.5625,258.4844 411.2813,258.3438 410.9844,258.3438 C410.6875,258.3438 410.4844,258.4375 410.2656,258.75 L410.0938,258.6719 Z " fill="#000000"/><text fill="#000000" font-family="sans-serif" font-size="14" lengthAdjust="spacing" textLength="38" x="428.25" y="267.8467">Users</text><line style="stroke:#181818;stroke-width:0.5;" x1="363" x2="499" y1="279" y2="279"/><rect fill="none" height="6" style="stroke:#C82930;stroke-width:1.0;" width="6" x="370" y="289.6484"/><text fill="#000000" font-family="sans-serif" font-size="14" lengthAdjust="spacing" textLength="46" x="382" y="295.9951">id : int</text><rect fill="none" height="6" style="stroke:#C82930;stroke-width:1.0;" width="6" x="370" y="305.9453"/><text fill="#000000" font-family="sans-serif" font-size="14" lengthAdjust="spacing" textLength="96" x="382" y="312.292">nome : string</text><rect fill="none" height="6" style="stroke:#C82930;stroke-width:1.0;" width="6" x="370" y="322.2422"/><text fill="#000000" font-family="sans-serif" font-size="14" lengthAdjust="spacing" textLength="112" x="382" y="328.5889">registro : string</text><rect fill="none" height="6" style="stroke:#C82930;stroke-width:1.0;" width="6" x="370" y="338.5391"/><text fill="#000000" font-family="sans-serif" font-size="14" lengthAdjust="spacing" textLength="94" x="382" y="344.8857">rostos : array</text><rect fill="none" height="6" style="stroke:#C82930;stroke-width:1.0;" width="6" x="370" y="354.8359"/><text fill="#000000" font-family="sans-serif" font-size="14" lengthAdjust="spacing" textLength="94" x="382" y="361.1826">email : string</text><rect fill="none" height="6" style="stroke:#C82930;stroke-width:1.0;" width="6" x="370" y="371.1328"/><text fill="#000000" font-family="sans-serif" font-size="14" lengthAdjust="spacing" textLength="97" x="382" y="377.4795">senha : string</text><line style="stroke:#181818;stroke-width:0.5;" x1="363" x2="499" y1="384.7813" y2="384.7813"/><ellipse cx="373" cy="398.4297" fill="#84BE84" rx="3" ry="3" style="stroke:#038048;stroke-width:1.0;"/><text fill="#000000" font-family="sans-serif" font-size="14" lengthAdjust="spacing" textLength="75" x="382" y="401.7764">setNome()</text><ellipse cx="373" cy="414.7266" fill="#84BE84" rx="3" ry="3" style="stroke:#038048;stroke-width:1.0;"/><text fill="#000000" font-family="sans-serif" font-size="14" lengthAdjust="spacing" textLength="94" x="382" y="418.0732">setRegistro()</text><ellipse cx="373" cy="431.0234" fill="#84BE84" rx="3" ry="3" style="stroke:#038048;stroke-width:1.0;"/><text fill="#000000" font-family="sans-serif" font-size="14" lengthAdjust="spacing" textLength="72" x="382" y="434.3701">setEmail()</text><ellipse cx="373" cy="447.3203" fill="#84BE84" rx="3" ry="3" style="stroke:#038048;stroke-width:1.0;"/><text fill="#000000" font-family="sans-serif" font-size="14" lengthAdjust="spacing" textLength="77" x="382" y="450.667">setSenha()</text><ellipse cx="373" cy="463.6172" fill="#84BE84" rx="3" ry="3" style="stroke:#038048;stroke-width:1.0;"/><text fill="#000000" font-family="sans-serif" font-size="14" lengthAdjust="spacing" textLength="77" x="382" y="466.9639">getNome()</text><ellipse cx="373" cy="479.9141" fill="#84BE84" rx="3" ry="3" style="stroke:#038048;stroke-width:1.0;"/><text fill="#000000" font-family="sans-serif" font-size="14" lengthAdjust="spacing" textLength="96" x="382" y="483.2607">getRegistro()</text><ellipse cx="373" cy="496.2109" fill="#84BE84" rx="3" ry="3" style="stroke:#038048;stroke-width:1.0;"/><text fill="#000000" font-family="sans-serif" font-size="14" lengthAdjust="spacing" textLength="74" x="382" y="499.5576">getEmail()</text><ellipse cx="373" cy="512.5078" fill="#84BE84" rx="3" ry="3" style="stroke:#038048;stroke-width:1.0;"/><text fill="#000000" font-family="sans-serif" font-size="14" lengthAdjust="spacing" textLength="79" x="382" y="515.8545">getSenha()</text></g><!--class Presenca--><g id="elem_Presenca"><rect codeLine="34" fill="#F1F1F1" height="210.9688" id="Presenca" rx="2.5" ry="2.5" style="stroke:#181818;stroke-width:0.5;" width="146" x="22" y="279.5"/><ellipse cx="59.05" cy="295.5" fill="#ADD1B2" rx="11" ry="11" style="stroke:#181818;stroke-width:1.0;"/><path d="M61.3938,291.1719 C60.4563,290.7344 59.8625,290.5938 58.9875,290.5938 C56.3625,290.5938 54.3625,292.6719 54.3625,295.3906 L54.3625,296.5156 C54.3625,299.0938 56.4719,300.9844 59.3625,300.9844 C60.5813,300.9844 61.7375,300.6875 62.4875,300.1406 C63.0656,299.7344 63.3938,299.2813 63.3938,298.8906 C63.3938,298.4375 63.0031,298.0469 62.5344,298.0469 C62.3156,298.0469 62.1125,298.125 61.925,298.3125 C61.4719,298.7969 61.4719,298.7969 61.2844,298.8906 C60.8625,299.1563 60.175,299.2813 59.4094,299.2813 C57.3625,299.2813 56.0656,298.1875 56.0656,296.4844 L56.0656,295.3906 C56.0656,293.6094 57.3156,292.2969 59.05,292.2969 C59.6281,292.2969 60.2375,292.4531 60.7063,292.7031 C61.1906,292.9844 61.3625,293.2031 61.4563,293.6094 C61.5188,294.0156 61.55,294.1406 61.6906,294.2656 C61.8313,294.4063 62.0656,294.5156 62.2844,294.5156 C62.55,294.5156 62.8156,294.375 62.9875,294.1563 C63.0969,294 63.1281,293.8125 63.1281,293.3906 L63.1281,291.9688 C63.1281,291.5313 63.1125,291.4063 63.0188,291.25 C62.8625,290.9844 62.5813,290.8438 62.2844,290.8438 C61.9875,290.8438 61.7844,290.9375 61.5656,291.25 L61.3938,291.1719 Z " fill="#000000"/><text fill="#000000" font-family="sans-serif" font-size="14" lengthAdjust="spacing" textLength="65" x="77.95" y="300.3467">Presenca</text><line style="stroke:#181818;stroke-width:0.5;" x1="23" x2="167" y1="311.5" y2="311.5"/><rect fill="none" height="6" style="stroke:#C82930;stroke-width:1.0;" width="6" x="30" y="322.1484"/><text fill="#000000" font-family="sans-serif" font-size="14" lengthAdjust="spacing" textLength="46" x="42" y="328.4951">id : int</text><rect fill="none" height="6" style="stroke:#C82930;stroke-width:1.0;" width="6" x="30" y="338.4453"/><text fill="#000000" font-family="sans-serif" font-size="14" lengthAdjust="spacing" textLength="97" x="42" y="344.792">idUsuario : int</text><rect fill="none" height="6" style="stroke:#C82930;stroke-width:1.0;" width="6" x="30" y="354.7422"/><text fill="#000000" font-family="sans-serif" font-size="14" lengthAdjust="spacing" textLength="120" x="42" y="361.0889">dataHora : string</text><rect fill="none" height="6" style="stroke:#C82930;stroke-width:1.0;" width="6" x="30" y="371.0391"/><text fill="#000000" font-family="sans-serif" font-size="14" lengthAdjust="spacing" textLength="85" x="42" y="377.3857">tipo : string</text><line style="stroke:#181818;stroke-width:0.5;" x1="23" x2="167" y1="384.6875" y2="384.6875"/><ellipse cx="33" cy="398.3359" fill="#84BE84" rx="3" ry="3" style="stroke:#038048;stroke-width:1.0;"/><text fill="#000000" font-family="sans-serif" font-size="14" lengthAdjust="spacing" textLength="97" x="42" y="401.6826">setIdUsuario()</text><ellipse cx="33" cy="414.6328" fill="#84BE84" rx="3" ry="3" style="stroke:#038048;stroke-width:1.0;"/><text fill="#000000" font-family="sans-serif" font-size="14" lengthAdjust="spacing" textLength="100" x="42" y="417.9795">setDataHora()</text><ellipse cx="33" cy="430.9297" fill="#84BE84" rx="3" ry="3" style="stroke:#038048;stroke-width:1.0;"/><text fill="#000000" font-family="sans-serif" font-size="14" lengthAdjust="spacing" textLength="65" x="42" y="434.2764">setTipo()</text><ellipse cx="33" cy="447.2266" fill="#84BE84" rx="3" ry="3" style="stroke:#038048;stroke-width:1.0;"/><text fill="#000000" font-family="sans-serif" font-size="14" lengthAdjust="spacing" textLength="99" x="42" y="450.5732">getIdUsuario()</text><ellipse cx="33" cy="463.5234" fill="#84BE84" rx="3" ry="3" style="stroke:#038048;stroke-width:1.0;"/><text fill="#000000" font-family="sans-serif" font-size="14" lengthAdjust="spacing" textLength="102" x="42" y="466.8701">getDataHora()</text><ellipse cx="33" cy="479.8203" fill="#84BE84" rx="3" ry="3" style="stroke:#038048;stroke-width:1.0;"/><text fill="#000000" font-family="sans-serif" font-size="14" lengthAdjust="spacing" textLength="67" x="42" y="483.167">getTipo()</text></g><!--link UserController to Users--><g id="link_UserController_Users"><path codeLine="51" d="M387.077,170.164 C391.793,193.126 396.1088,214.1367 401.6158,240.9467 " fill="none" id="UserController-to-Users" style="stroke:#181818;stroke-width:1.0;stroke-dasharray:7.0,7.0;"/><polygon fill="#181818" points="402.823,246.824,404.9303,237.2032,401.817,241.9263,397.0939,238.8129,402.823,246.824" style="stroke:#181818;stroke-width:1.0;"/><text fill="#000000" font-family="sans-serif" font-size="13" lengthAdjust="spacing" textLength="30" x="396" y="213.0669">uses</text></g><!--link PresencaController to Presenca--><g id="link_PresencaController_Presenca"><path codeLine="52" d="M149.13,162.279 C145.704,174.675 142.163,187.766 139,200 C132.382,225.599 126.9755,247.4575 120.7535,273.3975 " fill="none" id="PresencaController-to-Presenca" style="stroke:#181818;stroke-width:1.0;stroke-dasharray:7.0,7.0;"/><polygon fill="#181818" points="119.354,279.232,125.3429,271.4132,120.5202,274.3699,117.5635,269.5473,119.354,279.232" style="stroke:#181818;stroke-width:1.0;"/><text fill="#000000" font-family="sans-serif" font-size="13" lengthAdjust="spacing" textLength="30" x="140" y="213.0669">uses</text></g><!--link UserController to Conexao--><g id="link_UserController_Conexao"><path codeLine="54" d="M348.993,170.164 C326.555,227.289 296.7657,303.1294 279.4567,347.1944 " fill="none" id="UserController-to-Conexao" style="stroke:#181818;stroke-width:1.0;stroke-dasharray:7.0,7.0;"/><polygon fill="#181818" points="277.263,352.779,284.2766,345.8645,279.0911,348.1252,276.8304,342.9396,277.263,352.779" style="stroke:#181818;stroke-width:1.0;"/><text fill="#000000" font-family="sans-serif" font-size="13" lengthAdjust="spacing" textLength="30" x="336" y="213.0669">uses</text></g><!--link PresencaController to Conexao--><g id="link_PresencaController_Conexao"><path codeLine="55" d="M185.116,162.322 C205.763,219.616 235.1129,301.0633 251.7299,347.1763 " fill="none" id="PresencaController-to-Conexao" style="stroke:#181818;stroke-width:1.0;stroke-dasharray:7.0,7.0;"/><polygon fill="#181818" points="253.764,352.821,254.476,342.9979,252.0689,348.1171,246.9497,345.71,253.764,352.821" style="stroke:#181818;stroke-width:1.0;"/><text fill="#000000" font-family="sans-serif" font-size="13" lengthAdjust="spacing" textLength="30" x="205" y="213.0669">uses</text></g><!--SRC=[XLD1JiCm4Bpd5LPF8DG-e0SEb4hj1KL07x1ALgw5QqThHmAX_1rRTP3jRi2dP6OzEpjQ3z1zW4InUWeVwxtfHNjenKw3S-XMuhiHuNJnLvmSqiuQJrPhf4J5yo2K2Po_kyyWGgcSHof0RQKo1U8Gg3iNK8yQFIPeoWoqX0vD1micvewf39a-B3KEFNXagQkLYiej1Ilu2RRm8T4dcBaGGtHP-LgeNcn3W3w3ZBrW09qdPMI6NoSaotBMUUi20qJmbH5u0QMv6s6cCzmICIl_4XnK-VdNrBt6zx513Rv5yGAKZAfSK9MSgYnLkStuBrZLdzm8fEmD4rO03fQ02yghmIxaT9m5w_cVarwDlmUjUYfUH2w8o49aQgOcdkfnRZQFQTMsOWmlkM7UJgpv3IwLSJhpZl-jL5Rz0000]--></g></svg>