<?xml version="1.0" encoding="us-ascii" standalone="no"?><svg xmlns="http://www.w3.org/2000/svg" xmlns:xlink="http://www.w3.org/1999/xlink" contentStyleType="text/css" height="400px" preserveAspectRatio="none" style="width:424px;height:400px;background:#FFFFFF;" version="1.1" viewBox="0 0 424 400" width="424px" zoomAndPan="magnify"><defs/><g><!--cluster Database Tables--><g id="cluster_Database Tables"><path d="M8.5,6 L145.5,6 A3.75,3.75 0 0 1 148,8.5 L155,28.2969 L414.5,28.2969 A2.5,2.5 0 0 1 417,30.7969 L417,390.5 A2.5,2.5 0 0 1 414.5,393 L8.5,393 A2.5,2.5 0 0 1 6,390.5 L6,8.5 A2.5,2.5 0 0 1 8.5,6 " fill="none" style="stroke:#000000;stroke-width:1.5;"/><line style="stroke:#000000;stroke-width:1.5;" x1="6" x2="155" y1="28.2969" y2="28.2969"/><text fill="#000000" font-family="sans-serif" font-size="14" font-weight="bold" lengthAdjust="spacing" textLength="136" x="10" y="20.9951">Database Tables</text></g><!--class FacesTable--><g id="elem_FacesTable"><rect codeLine="2" fill="#F1F1F1" height="96.8906" id="FacesTable" rx="2.5" ry="2.5" style="stroke:#181818;stroke-width:0.5;" width="166" x="22" y="272"/><ellipse cx="61.3" cy="288" fill="#ADD1B2" rx="11" ry="11" style="stroke:#181818;stroke-width:1.0;"/><path d="M63.6438,283.6719 C62.7063,283.2344 62.1125,283.0938 61.2375,283.0938 C58.6125,283.0938 56.6125,285.1719 56.6125,287.8906 L56.6125,289.0156 C56.6125,291.5938 58.7219,293.4844 61.6125,293.4844 C62.8313,293.4844 63.9875,293.1875 64.7375,292.6406 C65.3156,292.2344 65.6438,291.7813 65.6438,291.3906 C65.6438,290.9375 65.2531,290.5469 64.7844,290.5469 C64.5656,290.5469 64.3625,290.625 64.175,290.8125 C63.7219,291.2969 63.7219,291.2969 63.5344,291.3906 C63.1125,291.6563 62.425,291.7813 61.6594,291.7813 C59.6125,291.7813 58.3156,290.6875 58.3156,288.9844 L58.3156,287.8906 C58.3156,286.1094 59.5656,284.7969 61.3,284.7969 C61.8781,284.7969 62.4875,284.9531 62.9563,285.2031 C63.4406,285.4844 63.6125,285.7031 63.7063,286.1094 C63.7688,286.5156 63.8,286.6406 63.9406,286.7656 C64.0813,286.9063 64.3156,287.0156 64.5344,287.0156 C64.8,287.0156 65.0656,286.875 65.2375,286.6563 C65.3469,286.5 65.3781,286.3125 65.3781,285.8906 L65.3781,284.4688 C65.3781,284.0313 65.3625,283.9063 65.2688,283.75 C65.1125,283.4844 64.8313,283.3438 64.5344,283.3438 C64.2375,283.3438 64.0344,283.4375 63.8156,283.75 L63.6438,283.6719 Z " fill="#000000"/><text fill="#000000" font-family="sans-serif" font-size="14" lengthAdjust="spacing" textLength="80" x="80.7" y="292.8467">FacesTable</text><line style="stroke:#181818;stroke-width:0.5;" x1="23" x2="187" y1="304" y2="304"/><ellipse cx="33" cy="317.6484" fill="none" rx="3" ry="3" style="stroke:#038048;stroke-width:1.0;"/><text fill="#000000" font-family="sans-serif" font-size="14" lengthAdjust="spacing" textLength="46" x="42" y="320.9951">id : int</text><ellipse cx="33" cy="333.9453" fill="none" rx="3" ry="3" style="stroke:#038048;stroke-width:1.0;"/><text fill="#000000" font-family="sans-serif" font-size="14" lengthAdjust="spacing" textLength="83" x="42" y="337.292">idusers : int</text><ellipse cx="33" cy="350.2422" fill="none" rx="3" ry="3" style="stroke:#038048;stroke-width:1.0;"/><text fill="#000000" font-family="sans-serif" font-size="14" lengthAdjust="spacing" textLength="140" x="42" y="353.5889">faces : mediumtext</text><line style="stroke:#181818;stroke-width:0.5;" x1="23" x2="187" y1="360.8906" y2="360.8906"/></g><!--class PresencasTable--><g id="elem_PresencasTable"><rect codeLine="7" fill="#F1F1F1" height="113.1875" id="PresencasTable" rx="2.5" ry="2.5" style="stroke:#181818;stroke-width:0.5;" width="177" x="223.5" y="264"/><ellipse cx="253.35" cy="280" fill="#ADD1B2" rx="11" ry="11" style="stroke:#181818;stroke-width:1.0;"/><path d="M255.6938,275.6719 C254.7563,275.2344 254.1625,275.0938 253.2875,275.0938 C250.6625,275.0938 248.6625,277.1719 248.6625,279.8906 L248.6625,281.0156 C248.6625,283.5938 250.7719,285.4844 253.6625,285.4844 C254.8813,285.4844 256.0375,285.1875 256.7875,284.6406 C257.3656,284.2344 257.6938,283.7813 257.6938,283.3906 C257.6938,282.9375 257.3031,282.5469 256.8344,282.5469 C256.6156,282.5469 256.4125,282.625 256.225,282.8125 C255.7719,283.2969 255.7719,283.2969 255.5844,283.3906 C255.1625,283.6563 254.475,283.7813 253.7094,283.7813 C251.6625,283.7813 250.3656,282.6875 250.3656,280.9844 L250.3656,279.8906 C250.3656,278.1094 251.6156,276.7969 253.35,276.7969 C253.9281,276.7969 254.5375,276.9531 255.0063,277.2031 C255.4906,277.4844 255.6625,277.7031 255.7563,278.1094 C255.8188,278.5156 255.85,278.6406 255.9906,278.7656 C256.1313,278.9063 256.3656,279.0156 256.5844,279.0156 C256.85,279.0156 257.1156,278.875 257.2875,278.6563 C257.3969,278.5 257.4281,278.3125 257.4281,277.8906 L257.4281,276.4688 C257.4281,276.0313 257.4125,275.9063 257.3188,275.75 C257.1625,275.4844 256.8813,275.3438 256.5844,275.3438 C256.2875,275.3438 256.0844,275.4375 255.8656,275.75 L255.6938,275.6719 Z " fill="#000000"/><text fill="#000000" font-family="sans-serif" font-size="14" lengthAdjust="spacing" textLength="112" x="270.65" y="284.8467">PresencasTable</text><line style="stroke:#181818;stroke-width:0.5;" x1="224.5" x2="399.5" y1="296" y2="296"/><ellipse cx="234.5" cy="309.6484" fill="none" rx="3" ry="3" style="stroke:#038048;stroke-width:1.0;"/><text fill="#000000" font-family="sans-serif" font-size="14" lengthAdjust="spacing" textLength="46" x="243.5" y="312.9951">id : int</text><ellipse cx="234.5" cy="325.9453" fill="none" rx="3" ry="3" style="stroke:#038048;stroke-width:1.0;"/><text fill="#000000" font-family="sans-serif" font-size="14" lengthAdjust="spacing" textLength="103" x="243.5" y="329.292">id_usuario : int</text><ellipse cx="234.5" cy="342.2422" fill="none" rx="3" ry="3" style="stroke:#038048;stroke-width:1.0;"/><text fill="#000000" font-family="sans-serif" font-size="14" lengthAdjust="spacing" textLength="151" x="243.5" y="345.5889">data_hora : datetime</text><ellipse cx="234.5" cy="358.5391" fill="none" rx="3" ry="3" style="stroke:#038048;stroke-width:1.0;"/><text fill="#000000" font-family="sans-serif" font-size="14" lengthAdjust="spacing" textLength="74" x="243.5" y="361.8857">tipo : char</text><line style="stroke:#181818;stroke-width:0.5;" x1="224.5" x2="399.5" y1="369.1875" y2="369.1875"/></g><!--class UsersTable--><g id="elem_UsersTable"><rect codeLine="13" fill="#F1F1F1" height="145.7813" id="UsersTable" rx="2.5" ry="2.5" style="stroke:#181818;stroke-width:0.5;" width="168" x="60" y="41"/><ellipse cx="101.1" cy="57" fill="#ADD1B2" rx="11" ry="11" style="stroke:#181818;stroke-width:1.0;"/><path d="M103.4438,52.6719 C102.5063,52.2344 101.9125,52.0938 101.0375,52.0938 C98.4125,52.0938 96.4125,54.1719 96.4125,56.8906 L96.4125,58.0156 C96.4125,60.5938 98.5219,62.4844 101.4125,62.4844 C102.6313,62.4844 103.7875,62.1875 104.5375,61.6406 C105.1156,61.2344 105.4438,60.7813 105.4438,60.3906 C105.4438,59.9375 105.0531,59.5469 104.5844,59.5469 C104.3656,59.5469 104.1625,59.625 103.975,59.8125 C103.5219,60.2969 103.5219,60.2969 103.3344,60.3906 C102.9125,60.6563 102.225,60.7813 101.4594,60.7813 C99.4125,60.7813 98.1156,59.6875 98.1156,57.9844 L98.1156,56.8906 C98.1156,55.1094 99.3656,53.7969 101.1,53.7969 C101.6781,53.7969 102.2875,53.9531 102.7563,54.2031 C103.2406,54.4844 103.4125,54.7031 103.5063,55.1094 C103.5688,55.5156 103.6,55.6406 103.7406,55.7656 C103.8813,55.9063 104.1156,56.0156 104.3344,56.0156 C104.6,56.0156 104.8656,55.875 105.0375,55.6563 C105.1469,55.5 105.1781,55.3125 105.1781,54.8906 L105.1781,53.4688 C105.1781,53.0313 105.1625,52.9063 105.0688,52.75 C104.9125,52.4844 104.6313,52.3438 104.3344,52.3438 C104.0375,52.3438 103.8344,52.4375 103.6156,52.75 L103.4438,52.6719 Z " fill="#000000"/><text fill="#000000" font-family="sans-serif" font-size="14" lengthAdjust="spacing" textLength="78" x="120.9" y="61.8467">UsersTable</text><line style="stroke:#181818;stroke-width:0.5;" x1="61" x2="227" y1="73" y2="73"/><ellipse cx="71" cy="86.6484" fill="none" rx="3" ry="3" style="stroke:#038048;stroke-width:1.0;"/><text fill="#000000" font-family="sans-serif" font-size="14" lengthAdjust="spacing" textLength="46" x="80" y="89.9951">id : int</text><ellipse cx="71" cy="102.9453" fill="none" rx="3" ry="3" style="stroke:#038048;stroke-width:1.0;"/><text fill="#000000" font-family="sans-serif" font-size="14" lengthAdjust="spacing" textLength="107" x="80" y="106.292">nome : varchar</text><ellipse cx="71" cy="119.2422" fill="none" rx="3" ry="3" style="stroke:#038048;stroke-width:1.0;"/><text fill="#000000" font-family="sans-serif" font-size="14" lengthAdjust="spacing" textLength="123" x="80" y="122.5889">registro : varchar</text><ellipse cx="71" cy="135.5391" fill="none" rx="3" ry="3" style="stroke:#038048;stroke-width:1.0;"/><text fill="#000000" font-family="sans-serif" font-size="14" lengthAdjust="spacing" textLength="105" x="80" y="138.8857">email : varchar</text><ellipse cx="71" cy="151.8359" fill="none" rx="3" ry="3" style="stroke:#038048;stroke-width:1.0;"/><text fill="#000000" font-family="sans-serif" font-size="14" lengthAdjust="spacing" textLength="86" x="80" y="155.1826">senha : text</text><ellipse cx="71" cy="168.1328" fill="none" rx="3" ry="3" style="stroke:#038048;stroke-width:1.0;"/><text fill="#000000" font-family="sans-serif" font-size="14" lengthAdjust="spacing" textLength="142" x="80" y="171.4795">cadastro : datetime</text><line style="stroke:#181818;stroke-width:0.5;" x1="61" x2="227" y1="178.7813" y2="178.7813"/></g><!--link UsersTable to FacesTable--><g id="link_UsersTable_FacesTable"><path codeLine="24" d="M130.25,187.099 C124.899,215.158 118.914,246.543 114.114,271.711 " fill="none" id="UsersTable-FacesTable" style="stroke:#181818;stroke-width:1.0;"/><polygon fill="#000000" points="129.0634,230.4779,133.6447,222.1435,127.8709,221.0424,129.0634,230.4779" style="stroke:#000000;stroke-width:1.0;"/><text fill="#000000" font-family="sans-serif" font-size="13" lengthAdjust="spacing" textLength="23" x="139" y="230.0669">has</text><text fill="#000000" font-family="sans-serif" font-size="13" lengthAdjust="spacing" textLength="8" x="120.5582" y="206.8647">1</text><text fill="#000000" font-family="sans-serif" font-size="13" lengthAdjust="spacing" textLength="8" x="106.8332" y="260.8793">n</text></g><!--link UsersTable to PresencasTable--><g id="link_UsersTable_PresencasTable"><path codeLine="25" d="M203.231,187.099 C223.919,212.283 246.81,240.146 266.233,263.789 " fill="none" id="UsersTable-PresencasTable" style="stroke:#181818;stroke-width:1.0;"/><polygon fill="#000000" points="246.1739,229.4299,242.7032,220.5752,238.1614,224.3064,246.1739,229.4299" style="stroke:#000000;stroke-width:1.0;"/><text fill="#000000" font-family="sans-serif" font-size="13" lengthAdjust="spacing" textLength="23" x="252" y="230.0669">has</text><text fill="#000000" font-family="sans-serif" font-size="13" lengthAdjust="spacing" textLength="8" x="200.4952" y="206.8647">1</text><text fill="#000000" font-family="sans-serif" font-size="13" lengthAdjust="spacing" textLength="8" x="252.1676" y="253.0268">n</text></g><!--SRC=[ZP6n3i8m34JtV8ML5NLWPM12p0mmesjgQ4JJeZX5IAZ_Ja8hr5AGy6JTS-opSuMvuCoaDmZ88Knxv1MBfeUY6AQ226rXM5vWa5Cio1Qq8bk7YTGAUvdffzGXgeuBsxh0znvseo4xpyArmR-3ZgsqyBQPeIAkSYmRZqXYpi4w7k5Wh-cDAU5d7Wx9_5_pwyPn56_mxqOzy7os4dpp5RA3hRwIk7gP3BzFqyi61OPkarKwrIcbHdRrKbEMaQxr-BTML49e_QFmu-93yHC0]--></g></svg>