<?xml version="1.0" encoding="us-ascii" standalone="no"?><svg xmlns="http://www.w3.org/2000/svg" xmlns:xlink="http://www.w3.org/1999/xlink" contentStyleType="text/css" height="325px" preserveAspectRatio="none" style="width:1014px;height:325px;background:#FFFFFF;" version="1.1" viewBox="0 0 1014 325" width="1014px" zoomAndPan="magnify"><defs/><g><!--cluster Front-End Components--><g id="cluster_Front-End Components"><path d="M8.5,6 L194.5,6 A3.75,3.75 0 0 1 197,8.5 L204,28.2969 L1004.5,28.2969 A2.5,2.5 0 0 1 1007,30.7969 L1007,167.5 A2.5,2.5 0 0 1 1004.5,170 L8.5,170 A2.5,2.5 0 0 1 6,167.5 L6,8.5 A2.5,2.5 0 0 1 8.5,6 " fill="none" style="stroke:#000000;stroke-width:1.5;"/><line style="stroke:#000000;stroke-width:1.5;" x1="6" x2="204" y1="28.2969" y2="28.2969"/><text fill="#000000" font-family="sans-serif" font-size="14" font-weight="bold" lengthAdjust="spacing" textLength="185" x="10" y="20.9951">Front-End Components</text></g><!--cluster index--><g id="cluster_index"><path d="M483.5,219 L527.5,219 A3.75,3.75 0 0 1 530,221.5 L537,241.2969 L576.5,241.2969 A2.5,2.5 0 0 1 579,243.7969 L579,315.5 A2.5,2.5 0 0 1 576.5,318 L483.5,318 A2.5,2.5 0 0 1 481,315.5 L481,221.5 A2.5,2.5 0 0 1 483.5,219 " fill="none" style="stroke:#000000;stroke-width:1.5;"/><line style="stroke:#000000;stroke-width:1.5;" x1="481" x2="537" y1="241.2969" y2="241.2969"/><text fill="#000000" font-family="sans-serif" font-size="14" font-weight="bold" lengthAdjust="spacing" textLength="43" x="485" y="233.9951">index</text></g><!--class Camera--><g id="elem_Camera"><rect codeLine="2" fill="#F1F1F1" height="80.5938" id="Camera" rx="2.5" ry="2.5" style="stroke:#181818;stroke-width:0.5;" width="150" x="22" y="57"/><ellipse cx="65.35" cy="73" fill="#ADD1B2" rx="11" ry="11" style="stroke:#181818;stroke-width:1.0;"/><path d="M67.6938,68.6719 C66.7563,68.2344 66.1625,68.0938 65.2875,68.0938 C62.6625,68.0938 60.6625,70.1719 60.6625,72.8906 L60.6625,74.0156 C60.6625,76.5938 62.7719,78.4844 65.6625,78.4844 C66.8813,78.4844 68.0375,78.1875 68.7875,77.6406 C69.3656,77.2344 69.6938,76.7813 69.6938,76.3906 C69.6938,75.9375 69.3031,75.5469 68.8344,75.5469 C68.6156,75.5469 68.4125,75.625 68.225,75.8125 C67.7719,76.2969 67.7719,76.2969 67.5844,76.3906 C67.1625,76.6563 66.475,76.7813 65.7094,76.7813 C63.6625,76.7813 62.3656,75.6875 62.3656,73.9844 L62.3656,72.8906 C62.3656,71.1094 63.6156,69.7969 65.35,69.7969 C65.9281,69.7969 66.5375,69.9531 67.0063,70.2031 C67.4906,70.4844 67.6625,70.7031 67.7563,71.1094 C67.8188,71.5156 67.85,71.6406 67.9906,71.7656 C68.1313,71.9063 68.3656,72.0156 68.5844,72.0156 C68.85,72.0156 69.1156,71.875 69.2875,71.6563 C69.3969,71.5 69.4281,71.3125 69.4281,70.8906 L69.4281,69.4688 C69.4281,69.0313 69.4125,68.9063 69.3188,68.75 C69.1625,68.4844 68.8813,68.3438 68.5844,68.3438 C68.2875,68.3438 68.0844,68.4375 67.8656,68.75 L67.6938,68.6719 Z " fill="#000000"/><text fill="#000000" font-family="sans-serif" font-size="14" lengthAdjust="spacing" textLength="55" x="85.65" y="77.8467">Camera</text><line style="stroke:#181818;stroke-width:0.5;" x1="23" x2="171" y1="89" y2="89"/><line style="stroke:#181818;stroke-width:0.5;" x1="23" x2="171" y1="97" y2="97"/><ellipse cx="33" cy="110.6484" fill="#84BE84" rx="3" ry="3" style="stroke:#038048;stroke-width:1.0;"/><text fill="#000000" font-family="sans-serif" font-size="14" lengthAdjust="spacing" textLength="124" x="42" y="113.9951">activateCamera()</text><ellipse cx="33" cy="126.9453" fill="#84BE84" rx="3" ry="3" style="stroke:#038048;stroke-width:1.0;"/><text fill="#000000" font-family="sans-serif" font-size="14" lengthAdjust="spacing" textLength="58" x="42" y="130.292">render()</text></g><!--class FaceRegister--><g id="elem_FaceRegister"><rect codeLine="6" fill="#F1F1F1" height="80.5938" id="FaceRegister" rx="2.5" ry="2.5" style="stroke:#181818;stroke-width:0.5;" width="126" x="207" y="57"/><ellipse cx="222" cy="73" fill="#ADD1B2" rx="11" ry="11" style="stroke:#181818;stroke-width:1.0;"/><path d="M224.3438,68.6719 C223.4063,68.2344 222.8125,68.0938 221.9375,68.0938 C219.3125,68.0938 217.3125,70.1719 217.3125,72.8906 L217.3125,74.0156 C217.3125,76.5938 219.4219,78.4844 222.3125,78.4844 C223.5313,78.4844 224.6875,78.1875 225.4375,77.6406 C226.0156,77.2344 226.3438,76.7813 226.3438,76.3906 C226.3438,75.9375 225.9531,75.5469 225.4844,75.5469 C225.2656,75.5469 225.0625,75.625 224.875,75.8125 C224.4219,76.2969 224.4219,76.2969 224.2344,76.3906 C223.8125,76.6563 223.125,76.7813 222.3594,76.7813 C220.3125,76.7813 219.0156,75.6875 219.0156,73.9844 L219.0156,72.8906 C219.0156,71.1094 220.2656,69.7969 222,69.7969 C222.5781,69.7969 223.1875,69.9531 223.6563,70.2031 C224.1406,70.4844 224.3125,70.7031 224.4063,71.1094 C224.4688,71.5156 224.5,71.6406 224.6406,71.7656 C224.7813,71.9063 225.0156,72.0156 225.2344,72.0156 C225.5,72.0156 225.7656,71.875 225.9375,71.6563 C226.0469,71.5 226.0781,71.3125 226.0781,70.8906 L226.0781,69.4688 C226.0781,69.0313 226.0625,68.9063 225.9688,68.75 C225.8125,68.4844 225.5313,68.3438 225.2344,68.3438 C224.9375,68.3438 224.7344,68.4375 224.5156,68.75 L224.3438,68.6719 Z " fill="#000000"/><text fill="#000000" font-family="sans-serif" font-size="14" lengthAdjust="spacing" textLength="94" x="236" y="77.8467">FaceRegister</text><line style="stroke:#181818;stroke-width:0.5;" x1="208" x2="332" y1="89" y2="89"/><line style="stroke:#181818;stroke-width:0.5;" x1="208" x2="332" y1="97" y2="97"/><ellipse cx="218" cy="110.6484" fill="#84BE84" rx="3" ry="3" style="stroke:#038048;stroke-width:1.0;"/><text fill="#000000" font-family="sans-serif" font-size="14" lengthAdjust="spacing" textLength="100" x="227" y="113.9951">registerFace()</text><ellipse cx="218" cy="126.9453" fill="#84BE84" rx="3" ry="3" style="stroke:#038048;stroke-width:1.0;"/><text fill="#000000" font-family="sans-serif" font-size="14" lengthAdjust="spacing" textLength="58" x="227" y="130.292">render()</text></g><!--class Recognition--><g id="elem_Recognition"><rect codeLine="10" fill="#F1F1F1" height="80.5938" id="Recognition" rx="2.5" ry="2.5" style="stroke:#181818;stroke-width:0.5;" width="140" x="368" y="57"/><ellipse cx="392.45" cy="73" fill="#ADD1B2" rx="11" ry="11" style="stroke:#181818;stroke-width:1.0;"/><path d="M394.7938,68.6719 C393.8563,68.2344 393.2625,68.0938 392.3875,68.0938 C389.7625,68.0938 387.7625,70.1719 387.7625,72.8906 L387.7625,74.0156 C387.7625,76.5938 389.8719,78.4844 392.7625,78.4844 C393.9813,78.4844 395.1375,78.1875 395.8875,77.6406 C396.4656,77.2344 396.7938,76.7813 396.7938,76.3906 C396.7938,75.9375 396.4031,75.5469 395.9344,75.5469 C395.7156,75.5469 395.5125,75.625 395.325,75.8125 C394.8719,76.2969 394.8719,76.2969 394.6844,76.3906 C394.2625,76.6563 393.575,76.7813 392.8094,76.7813 C390.7625,76.7813 389.4656,75.6875 389.4656,73.9844 L389.4656,72.8906 C389.4656,71.1094 390.7156,69.7969 392.45,69.7969 C393.0281,69.7969 393.6375,69.9531 394.1063,70.2031 C394.5906,70.4844 394.7625,70.7031 394.8563,71.1094 C394.9188,71.5156 394.95,71.6406 395.0906,71.7656 C395.2313,71.9063 395.4656,72.0156 395.6844,72.0156 C395.95,72.0156 396.2156,71.875 396.3875,71.6563 C396.4969,71.5 396.5281,71.3125 396.5281,70.8906 L396.5281,69.4688 C396.5281,69.0313 396.5125,68.9063 396.4188,68.75 C396.2625,68.4844 395.9813,68.3438 395.6844,68.3438 C395.3875,68.3438 395.1844,68.4375 394.9656,68.75 L394.7938,68.6719 Z " fill="#000000"/><text fill="#000000" font-family="sans-serif" font-size="14" lengthAdjust="spacing" textLength="87" x="408.55" y="77.8467">Recognition</text><line style="stroke:#181818;stroke-width:0.5;" x1="369" x2="507" y1="89" y2="89"/><line style="stroke:#181818;stroke-width:0.5;" x1="369" x2="507" y1="97" y2="97"/><ellipse cx="379" cy="110.6484" fill="#84BE84" rx="3" ry="3" style="stroke:#038048;stroke-width:1.0;"/><text fill="#000000" font-family="sans-serif" font-size="14" lengthAdjust="spacing" textLength="114" x="388" y="113.9951">compareFaces()</text><ellipse cx="379" cy="126.9453" fill="#84BE84" rx="3" ry="3" style="stroke:#038048;stroke-width:1.0;"/><text fill="#000000" font-family="sans-serif" font-size="14" lengthAdjust="spacing" textLength="58" x="388" y="130.292">render()</text></g><!--class Presence--><g id="elem_Presence"><rect codeLine="14" fill="#F1F1F1" height="80.5938" id="Presence" rx="2.5" ry="2.5" style="stroke:#181818;stroke-width:0.5;" width="159" x="543.5" y="57"/><ellipse cx="585.95" cy="73" fill="#ADD1B2" rx="11" ry="11" style="stroke:#181818;stroke-width:1.0;"/><path d="M588.2938,68.6719 C587.3563,68.2344 586.7625,68.0938 585.8875,68.0938 C583.2625,68.0938 581.2625,70.1719 581.2625,72.8906 L581.2625,74.0156 C581.2625,76.5938 583.3719,78.4844 586.2625,78.4844 C587.4813,78.4844 588.6375,78.1875 589.3875,77.6406 C589.9656,77.2344 590.2938,76.7813 590.2938,76.3906 C590.2938,75.9375 589.9031,75.5469 589.4344,75.5469 C589.2156,75.5469 589.0125,75.625 588.825,75.8125 C588.3719,76.2969 588.3719,76.2969 588.1844,76.3906 C587.7625,76.6563 587.075,76.7813 586.3094,76.7813 C584.2625,76.7813 582.9656,75.6875 582.9656,73.9844 L582.9656,72.8906 C582.9656,71.1094 584.2156,69.7969 585.95,69.7969 C586.5281,69.7969 587.1375,69.9531 587.6063,70.2031 C588.0906,70.4844 588.2625,70.7031 588.3563,71.1094 C588.4188,71.5156 588.45,71.6406 588.5906,71.7656 C588.7313,71.9063 588.9656,72.0156 589.1844,72.0156 C589.45,72.0156 589.7156,71.875 589.8875,71.6563 C589.9969,71.5 590.0281,71.3125 590.0281,70.8906 L590.0281,69.4688 C590.0281,69.0313 590.0125,68.9063 589.9188,68.75 C589.7625,68.4844 589.4813,68.3438 589.1844,68.3438 C588.8875,68.3438 588.6844,68.4375 588.4656,68.75 L588.2938,68.6719 Z " fill="#000000"/><text fill="#000000" font-family="sans-serif" font-size="14" lengthAdjust="spacing" textLength="66" x="606.05" y="77.8467">Presence</text><line style="stroke:#181818;stroke-width:0.5;" x1="544.5" x2="701.5" y1="89" y2="89"/><line style="stroke:#181818;stroke-width:0.5;" x1="544.5" x2="701.5" y1="97" y2="97"/><ellipse cx="554.5" cy="110.6484" fill="#84BE84" rx="3" ry="3" style="stroke:#038048;stroke-width:1.0;"/><text fill="#000000" font-family="sans-serif" font-size="14" lengthAdjust="spacing" textLength="133" x="563.5" y="113.9951">registerPresence()</text><ellipse cx="554.5" cy="126.9453" fill="#84BE84" rx="3" ry="3" style="stroke:#038048;stroke-width:1.0;"/><text fill="#000000" font-family="sans-serif" font-size="14" lengthAdjust="spacing" textLength="58" x="563.5" y="130.292">render()</text></g><!--class User--><g id="elem_User"><rect codeLine="18" fill="#F1F1F1" height="113.1875" id="User" rx="2.5" ry="2.5" style="stroke:#181818;stroke-width:0.5;" width="124" x="738" y="41"/><ellipse cx="780.45" cy="57" fill="#ADD1B2" rx="11" ry="11" style="stroke:#181818;stroke-width:1.0;"/><path d="M782.7938,52.6719 C781.8563,52.2344 781.2625,52.0938 780.3875,52.0938 C777.7625,52.0938 775.7625,54.1719 775.7625,56.8906 L775.7625,58.0156 C775.7625,60.5938 777.8719,62.4844 780.7625,62.4844 C781.9813,62.4844 783.1375,62.1875 783.8875,61.6406 C784.4656,61.2344 784.7938,60.7813 784.7938,60.3906 C784.7938,59.9375 784.4031,59.5469 783.9344,59.5469 C783.7156,59.5469 783.5125,59.625 783.325,59.8125 C782.8719,60.2969 782.8719,60.2969 782.6844,60.3906 C782.2625,60.6563 781.575,60.7813 780.8094,60.7813 C778.7625,60.7813 777.4656,59.6875 777.4656,57.9844 L777.4656,56.8906 C777.4656,55.1094 778.7156,53.7969 780.45,53.7969 C781.0281,53.7969 781.6375,53.9531 782.1063,54.2031 C782.5906,54.4844 782.7625,54.7031 782.8563,55.1094 C782.9188,55.5156 782.95,55.6406 783.0906,55.7656 C783.2313,55.9063 783.4656,56.0156 783.6844,56.0156 C783.95,56.0156 784.2156,55.875 784.3875,55.6563 C784.4969,55.5 784.5281,55.3125 784.5281,54.8906 L784.5281,53.4688 C784.5281,53.0313 784.5125,52.9063 784.4188,52.75 C784.2625,52.4844 783.9813,52.3438 783.6844,52.3438 C783.3875,52.3438 783.1844,52.4375 782.9656,52.75 L782.7938,52.6719 Z " fill="#000000"/><text fill="#000000" font-family="sans-serif" font-size="14" lengthAdjust="spacing" textLength="31" x="800.55" y="61.8467">User</text><line style="stroke:#181818;stroke-width:0.5;" x1="739" x2="861" y1="73" y2="73"/><line style="stroke:#181818;stroke-width:0.5;" x1="739" x2="861" y1="81" y2="81"/><ellipse cx="749" cy="94.6484" fill="#84BE84" rx="3" ry="3" style="stroke:#038048;stroke-width:1.0;"/><text fill="#000000" font-family="sans-serif" font-size="14" lengthAdjust="spacing" textLength="87" x="758" y="97.9951">fetchUsers()</text><ellipse cx="749" cy="110.9453" fill="#84BE84" rx="3" ry="3" style="stroke:#038048;stroke-width:1.0;"/><text fill="#000000" font-family="sans-serif" font-size="14" lengthAdjust="spacing" textLength="98" x="758" y="114.292">registerUser()</text><ellipse cx="749" cy="127.2422" fill="#84BE84" rx="3" ry="3" style="stroke:#038048;stroke-width:1.0;"/><text fill="#000000" font-family="sans-serif" font-size="14" lengthAdjust="spacing" textLength="45" x="758" y="130.5889">login()</text><ellipse cx="749" cy="143.5391" fill="#84BE84" rx="3" ry="3" style="stroke:#038048;stroke-width:1.0;"/><text fill="#000000" font-family="sans-serif" font-size="14" lengthAdjust="spacing" textLength="58" x="758" y="146.8857">render()</text></g><!--class Auth--><g id="elem_Auth"><rect codeLine="24" fill="#F1F1F1" height="96.8906" id="Auth" rx="2.5" ry="2.5" style="stroke:#181818;stroke-width:0.5;" width="93" x="897.5" y="49"/><ellipse cx="924.65" cy="65" fill="#ADD1B2" rx="11" ry="11" style="stroke:#181818;stroke-width:1.0;"/><path d="M926.9938,60.6719 C926.0563,60.2344 925.4625,60.0938 924.5875,60.0938 C921.9625,60.0938 919.9625,62.1719 919.9625,64.8906 L919.9625,66.0156 C919.9625,68.5938 922.0719,70.4844 924.9625,70.4844 C926.1813,70.4844 927.3375,70.1875 928.0875,69.6406 C928.6656,69.2344 928.9938,68.7813 928.9938,68.3906 C928.9938,67.9375 928.6031,67.5469 928.1344,67.5469 C927.9156,67.5469 927.7125,67.625 927.525,67.8125 C927.0719,68.2969 927.0719,68.2969 926.8844,68.3906 C926.4625,68.6563 925.775,68.7813 925.0094,68.7813 C922.9625,68.7813 921.6656,67.6875 921.6656,65.9844 L921.6656,64.8906 C921.6656,63.1094 922.9156,61.7969 924.65,61.7969 C925.2281,61.7969 925.8375,61.9531 926.3063,62.2031 C926.7906,62.4844 926.9625,62.7031 927.0563,63.1094 C927.1188,63.5156 927.15,63.6406 927.2906,63.7656 C927.4313,63.9063 927.6656,64.0156 927.8844,64.0156 C928.15,64.0156 928.4156,63.875 928.5875,63.6563 C928.6969,63.5 928.7281,63.3125 928.7281,62.8906 L928.7281,61.4688 C928.7281,61.0313 928.7125,60.9063 928.6188,60.75 C928.4625,60.4844 928.1813,60.3438 927.8844,60.3438 C927.5875,60.3438 927.3844,60.4375 927.1656,60.75 L926.9938,60.6719 Z " fill="#000000"/><text fill="#000000" font-family="sans-serif" font-size="14" lengthAdjust="spacing" textLength="34" x="941.35" y="69.8467">Auth</text><line style="stroke:#181818;stroke-width:0.5;" x1="898.5" x2="989.5" y1="81" y2="81"/><line style="stroke:#181818;stroke-width:0.5;" x1="898.5" x2="989.5" y1="89" y2="89"/><ellipse cx="908.5" cy="102.6484" fill="#84BE84" rx="3" ry="3" style="stroke:#038048;stroke-width:1.0;"/><text fill="#000000" font-family="sans-serif" font-size="14" lengthAdjust="spacing" textLength="67" x="917.5" y="105.9951">register()</text><ellipse cx="908.5" cy="118.9453" fill="#84BE84" rx="3" ry="3" style="stroke:#038048;stroke-width:1.0;"/><text fill="#000000" font-family="sans-serif" font-size="14" lengthAdjust="spacing" textLength="45" x="917.5" y="122.292">login()</text><ellipse cx="908.5" cy="135.2422" fill="#84BE84" rx="3" ry="3" style="stroke:#038048;stroke-width:1.0;"/><text fill="#000000" font-family="sans-serif" font-size="14" lengthAdjust="spacing" textLength="58" x="917.5" y="138.5889">render()</text></g><!--class html--><g id="elem_html"><rect fill="#F1F1F1" height="48" id="html" rx="2.5" ry="2.5" style="stroke:#181818;stroke-width:0.5;" width="66" x="497" y="254"/><ellipse cx="512" cy="270" fill="#ADD1B2" rx="11" ry="11" style="stroke:#181818;stroke-width:1.0;"/><path d="M514.3438,265.6719 C513.4063,265.2344 512.8125,265.0938 511.9375,265.0938 C509.3125,265.0938 507.3125,267.1719 507.3125,269.8906 L507.3125,271.0156 C507.3125,273.5938 509.4219,275.4844 512.3125,275.4844 C513.5313,275.4844 514.6875,275.1875 515.4375,274.6406 C516.0156,274.2344 516.3438,273.7813 516.3438,273.3906 C516.3438,272.9375 515.9531,272.5469 515.4844,272.5469 C515.2656,272.5469 515.0625,272.625 514.875,272.8125 C514.4219,273.2969 514.4219,273.2969 514.2344,273.3906 C513.8125,273.6563 513.125,273.7813 512.3594,273.7813 C510.3125,273.7813 509.0156,272.6875 509.0156,270.9844 L509.0156,269.8906 C509.0156,268.1094 510.2656,266.7969 512,266.7969 C512.5781,266.7969 513.1875,266.9531 513.6563,267.2031 C514.1406,267.4844 514.3125,267.7031 514.4063,268.1094 C514.4688,268.5156 514.5,268.6406 514.6406,268.7656 C514.7813,268.9063 515.0156,269.0156 515.2344,269.0156 C515.5,269.0156 515.7656,268.875 515.9375,268.6563 C516.0469,268.5 516.0781,268.3125 516.0781,267.8906 L516.0781,266.4688 C516.0781,266.0313 516.0625,265.9063 515.9688,265.75 C515.8125,265.4844 515.5313,265.3438 515.2344,265.3438 C514.9375,265.3438 514.7344,265.4375 514.5156,265.75 L514.3438,265.6719 Z " fill="#000000"/><text fill="#000000" font-family="sans-serif" font-size="14" lengthAdjust="spacing" textLength="34" x="526" y="274.8467">html</text><line style="stroke:#181818;stroke-width:0.5;" x1="498" x2="562" y1="286" y2="286"/><line style="stroke:#181818;stroke-width:0.5;" x1="498" x2="562" y1="294" y2="294"/></g><!--link Camera to html--><g id="link_Camera_html"><path codeLine="33" d="M135.383,138.216 C150.908,152.436 169.708,167.521 189,178 C293.278,234.6423 427.6196,261.1282 490.7896,271.2537 " fill="none" id="Camera-to-html" style="stroke:#181818;stroke-width:1.0;"/><polygon fill="#181818" points="496.714,272.2033,488.4605,266.8293,491.777,271.412,487.1944,274.7285,496.714,272.2033" style="stroke:#181818;stroke-width:1.0;"/><text fill="#000000" font-family="sans-serif" font-size="13" lengthAdjust="spacing" textLength="64" x="243" y="199.0669">renders in</text></g><!--link FaceRegister to html--><g id="link_FaceRegister_html"><path codeLine="34" d="M305.453,138.014 C318.688,151.569 334.324,166.267 350,178 C397.539,213.584 453.9438,242.2238 491.3748,259.6725 " fill="none" id="FaceRegister-to-html" style="stroke:#181818;stroke-width:1.0;"/><polygon fill="#181818" points="496.813,262.2075,490.3458,254.7795,492.2812,260.095,486.9657,262.0304,496.813,262.2075" style="stroke:#181818;stroke-width:1.0;"/><text fill="#000000" font-family="sans-serif" font-size="13" lengthAdjust="spacing" textLength="64" x="384" y="199.0669">renders in</text></g><!--link Recognition to html--><g id="link_Recognition_html"><path codeLine="35" d="M458.418,138.115 C476.734,173.653 500.2361,219.2517 515.3331,248.5425 " fill="none" id="Recognition-to-html" style="stroke:#181818;stroke-width:1.0;"/><polygon fill="#181818" points="518.082,253.8758,517.5142,244.0433,515.7913,249.4314,510.4032,247.7085,518.082,253.8758" style="stroke:#181818;stroke-width:1.0;"/><text fill="#000000" font-family="sans-serif" font-size="13" lengthAdjust="spacing" textLength="64" x="491" y="199.0669">renders in</text></g><!--link Presence to html--><g id="link_Presence_html"><path codeLine="36" d="M602.36,138.115 C583.845,173.653 560.0814,219.2639 544.8204,248.5547 " fill="none" id="Presence-to-html" style="stroke:#181818;stroke-width:1.0;"/><polygon fill="#181818" points="542.048,253.8758,549.754,247.7424,544.3583,249.4416,542.6592,244.0459,542.048,253.8758" style="stroke:#181818;stroke-width:1.0;"/><text fill="#000000" font-family="sans-serif" font-size="13" lengthAdjust="spacing" textLength="64" x="578" y="199.0669">renders in</text></g><!--link User to html--><g id="link_User_html"><path codeLine="37" d="M748.245,154.339 C739.231,162.747 729.642,170.951 720,178 C669.256,215.1 608.2173,243.9871 568.8453,260.9502 " fill="none" id="User-to-html" style="stroke:#181818;stroke-width:1.0;"/><polygon fill="#181818" points="563.335,263.3243,573.1832,263.4367,567.9269,261.3459,570.0178,256.0896,563.335,263.3243" style="stroke:#181818;stroke-width:1.0;"/><text fill="#000000" font-family="sans-serif" font-size="13" lengthAdjust="spacing" textLength="64" x="706" y="199.0669">renders in</text></g><!--link Auth to html--><g id="link_Auth_html"><path codeLine="38" d="M913.297,146.406 C903.838,158.136 892.562,169.692 880,178 C777.556,245.7535 634.7125,267.0967 569.1255,273.7313 " fill="none" id="Auth-to-html" style="stroke:#181818;stroke-width:1.0;"/><polygon fill="#181818" points="563.156,274.3352,572.5129,277.4091,568.1306,273.832,571.7077,269.4497,563.156,274.3352" style="stroke:#181818;stroke-width:1.0;"/><text fill="#000000" font-family="sans-serif" font-size="13" lengthAdjust="spacing" textLength="64" x="864" y="199.0669">renders in</text></g><!--SRC=[bP5D2i8m48NtFSNGbIBr02u44LrBmGCCSMo3xKIIKGJftMqqIYCIwYpVUtppTqPrmeeWtrh3Kcpu06lJdWqJYylXda5Vga7dO8qjMGoIhncW4dr5ePSrcGuiItmW6wHkWDcYef8gxOHi1BD1z85ng9AKgLYBDXoHLBy1Ml8WDuwqi-I85VqSw6sEG-tTrrv74bLxzNkM5zqxaT6OIlEuNgkBr3z7_W_OPNs5znR54dBTsxTvBMsJmoAa7MZEekUbeyFdf9EVuwTZpyEc8yzx92CF]--></g></svg>