<?xml version="1.0" encoding="us-ascii" standalone="no"?><svg xmlns="http://www.w3.org/2000/svg" xmlns:xlink="http://www.w3.org/1999/xlink" contentStyleType="text/css" height="416px" preserveAspectRatio="none" style="width:223px;height:416px;background:#FFFFFF;" version="1.1" viewBox="0 0 223 416" width="223px" zoomAndPan="magnify"><defs/><g><!--cluster MongoDB Collections--><g id="cluster_MongoDB Collections"><path d="M8.5,6 L180.5,6 A3.75,3.75 0 0 1 183,8.5 L190,28.2969 L213.5,28.2969 A2.5,2.5 0 0 1 216,30.7969 L216,406.5 A2.5,2.5 0 0 1 213.5,409 L8.5,409 A2.5,2.5 0 0 1 6,406.5 L6,8.5 A2.5,2.5 0 0 1 8.5,6 " fill="none" style="stroke:#000000;stroke-width:1.5;"/><line style="stroke:#000000;stroke-width:1.5;" x1="6" x2="190" y1="28.2969" y2="28.2969"/><text fill="#000000" font-family="sans-serif" font-size="14" font-weight="bold" lengthAdjust="spacing" textLength="171" x="10" y="20.9951">MongoDB Collections</text></g><!--class UsersCollection--><g id="elem_UsersCollection"><rect codeLine="2" fill="#F1F1F1" height="162.0781" id="UsersCollection" rx="2.5" ry="2.5" style="stroke:#181818;stroke-width:0.5;" width="143" x="39.5" y="41"/><ellipse cx="54.5" cy="57" fill="#ADD1B2" rx="11" ry="11" style="stroke:#181818;stroke-width:1.0;"/><path d="M56.8438,52.6719 C55.9063,52.2344 55.3125,52.0938 54.4375,52.0938 C51.8125,52.0938 49.8125,54.1719 49.8125,56.8906 L49.8125,58.0156 C49.8125,60.5938 51.9219,62.4844 54.8125,62.4844 C56.0313,62.4844 57.1875,62.1875 57.9375,61.6406 C58.5156,61.2344 58.8438,60.7813 58.8438,60.3906 C58.8438,59.9375 58.4531,59.5469 57.9844,59.5469 C57.7656,59.5469 57.5625,59.625 57.375,59.8125 C56.9219,60.2969 56.9219,60.2969 56.7344,60.3906 C56.3125,60.6563 55.625,60.7813 54.8594,60.7813 C52.8125,60.7813 51.5156,59.6875 51.5156,57.9844 L51.5156,56.8906 C51.5156,55.1094 52.7656,53.7969 54.5,53.7969 C55.0781,53.7969 55.6875,53.9531 56.1563,54.2031 C56.6406,54.4844 56.8125,54.7031 56.9063,55.1094 C56.9688,55.5156 57,55.6406 57.1406,55.7656 C57.2813,55.9063 57.5156,56.0156 57.7344,56.0156 C58,56.0156 58.2656,55.875 58.4375,55.6563 C58.5469,55.5 58.5781,55.3125 58.5781,54.8906 L58.5781,53.4688 C58.5781,53.0313 58.5625,52.9063 58.4688,52.75 C58.3125,52.4844 58.0313,52.3438 57.7344,52.3438 C57.4375,52.3438 57.2344,52.4375 57.0156,52.75 L56.8438,52.6719 Z " fill="#000000"/><text fill="#000000" font-family="sans-serif" font-size="14" lengthAdjust="spacing" textLength="111" x="68.5" y="61.8467">UsersCollection</text><line style="stroke:#181818;stroke-width:0.5;" x1="40.5" x2="181.5" y1="73" y2="73"/><ellipse cx="50.5" cy="86.6484" fill="none" rx="3" ry="3" style="stroke:#038048;stroke-width:1.0;"/><text fill="#000000" font-family="sans-serif" font-size="14" lengthAdjust="spacing" textLength="95" x="59.5" y="89.9951">_id : ObjectId</text><ellipse cx="50.5" cy="102.9453" fill="none" rx="3" ry="3" style="stroke:#038048;stroke-width:1.0;"/><text fill="#000000" font-family="sans-serif" font-size="14" lengthAdjust="spacing" textLength="98" x="59.5" y="106.292">nome : String</text><ellipse cx="50.5" cy="119.2422" fill="none" rx="3" ry="3" style="stroke:#038048;stroke-width:1.0;"/><text fill="#000000" font-family="sans-serif" font-size="14" lengthAdjust="spacing" textLength="114" x="59.5" y="122.5889">registro : String</text><ellipse cx="50.5" cy="135.5391" fill="none" rx="3" ry="3" style="stroke:#038048;stroke-width:1.0;"/><text fill="#000000" font-family="sans-serif" font-size="14" lengthAdjust="spacing" textLength="96" x="59.5" y="138.8857">email : String</text><ellipse cx="50.5" cy="151.8359" fill="none" rx="3" ry="3" style="stroke:#038048;stroke-width:1.0;"/><text fill="#000000" font-family="sans-serif" font-size="14" lengthAdjust="spacing" textLength="99" x="59.5" y="155.1826">senha : String</text><ellipse cx="50.5" cy="168.1328" fill="none" rx="3" ry="3" style="stroke:#038048;stroke-width:1.0;"/><text fill="#000000" font-family="sans-serif" font-size="14" lengthAdjust="spacing" textLength="110" x="59.5" y="171.4795">cadastro : Date</text><ellipse cx="50.5" cy="184.4297" fill="none" rx="3" ry="3" style="stroke:#038048;stroke-width:1.0;"/><text fill="#000000" font-family="sans-serif" font-size="14" lengthAdjust="spacing" textLength="96" x="59.5" y="187.7764">rostos : Array</text><line style="stroke:#181818;stroke-width:0.5;" x1="40.5" x2="181.5" y1="195.0781" y2="195.0781"/></g><!--class PresencesCollection--><g id="elem_PresencesCollection"><rect codeLine="11" fill="#F1F1F1" height="113.1875" id="PresencesCollection" rx="2.5" ry="2.5" style="stroke:#181818;stroke-width:0.5;" width="178" x="22" y="280"/><ellipse cx="37" cy="296" fill="#ADD1B2" rx="11" ry="11" style="stroke:#181818;stroke-width:1.0;"/><path d="M39.3438,291.6719 C38.4063,291.2344 37.8125,291.0938 36.9375,291.0938 C34.3125,291.0938 32.3125,293.1719 32.3125,295.8906 L32.3125,297.0156 C32.3125,299.5938 34.4219,301.4844 37.3125,301.4844 C38.5313,301.4844 39.6875,301.1875 40.4375,300.6406 C41.0156,300.2344 41.3438,299.7813 41.3438,299.3906 C41.3438,298.9375 40.9531,298.5469 40.4844,298.5469 C40.2656,298.5469 40.0625,298.625 39.875,298.8125 C39.4219,299.2969 39.4219,299.2969 39.2344,299.3906 C38.8125,299.6563 38.125,299.7813 37.3594,299.7813 C35.3125,299.7813 34.0156,298.6875 34.0156,296.9844 L34.0156,295.8906 C34.0156,294.1094 35.2656,292.7969 37,292.7969 C37.5781,292.7969 38.1875,292.9531 38.6563,293.2031 C39.1406,293.4844 39.3125,293.7031 39.4063,294.1094 C39.4688,294.5156 39.5,294.6406 39.6406,294.7656 C39.7813,294.9063 40.0156,295.0156 40.2344,295.0156 C40.5,295.0156 40.7656,294.875 40.9375,294.6563 C41.0469,294.5 41.0781,294.3125 41.0781,293.8906 L41.0781,292.4688 C41.0781,292.0313 41.0625,291.9063 40.9688,291.75 C40.8125,291.4844 40.5313,291.3438 40.2344,291.3438 C39.9375,291.3438 39.7344,291.4375 39.5156,291.75 L39.3438,291.6719 Z " fill="#000000"/><text fill="#000000" font-family="sans-serif" font-size="14" lengthAdjust="spacing" textLength="146" x="51" y="300.8467">PresencesCollection</text><line style="stroke:#181818;stroke-width:0.5;" x1="23" x2="199" y1="312" y2="312"/><ellipse cx="33" cy="325.6484" fill="none" rx="3" ry="3" style="stroke:#038048;stroke-width:1.0;"/><text fill="#000000" font-family="sans-serif" font-size="14" lengthAdjust="spacing" textLength="95" x="42" y="328.9951">_id : ObjectId</text><ellipse cx="33" cy="341.9453" fill="none" rx="3" ry="3" style="stroke:#038048;stroke-width:1.0;"/><text fill="#000000" font-family="sans-serif" font-size="14" lengthAdjust="spacing" textLength="139" x="42" y="345.292">idUsuario : ObjectId</text><ellipse cx="33" cy="358.2422" fill="none" rx="3" ry="3" style="stroke:#038048;stroke-width:1.0;"/><text fill="#000000" font-family="sans-serif" font-size="14" lengthAdjust="spacing" textLength="119" x="42" y="361.5889">data_hora : Date</text><ellipse cx="33" cy="374.5391" fill="none" rx="3" ry="3" style="stroke:#038048;stroke-width:1.0;"/><text fill="#000000" font-family="sans-serif" font-size="14" lengthAdjust="spacing" textLength="87" x="42" y="377.8857">tipo : String</text><line style="stroke:#181818;stroke-width:0.5;" x1="23" x2="199" y1="385.1875" y2="385.1875"/></g><!--link UsersCollection to PresencesCollection--><g id="link_UsersCollection_PresencesCollection"><path codeLine="19" d="M111,203.034 C111,228.682 111,256.504 111,279.999 " fill="none" id="UsersCollection-PresencesCollection" style="stroke:#181818;stroke-width:1.0;"/><polygon fill="#000000" points="116,246.5664,118.9389,237.5213,113.0611,237.5213,116,246.5664" style="stroke:#000000;stroke-width:1.0;"/><text fill="#000000" font-family="sans-serif" font-size="13" lengthAdjust="spacing" textLength="23" x="125" y="246.0669">has</text><text fill="#000000" font-family="sans-serif" font-size="13" lengthAdjust="spacing" textLength="8" x="102.6313" y="223.2651">1</text><text fill="#000000" font-family="sans-serif" font-size="13" lengthAdjust="spacing" textLength="8" x="102.4875" y="268.8623">n</text></g><!--SRC=[bT2n2i9030RWlKyHRXK7LmT1xU8W2j9PubreJzjBISv1fE_kAO95Rp5ZFaZofqTxmPh0R3dKNAvWpMrBDdeEQk1UG2hReYfKIg8VVTkp9d3q3kQmEvsJRTm80dUKv135XthK5wgzHk6SKOU-pO5IQ3075Xs-fvKOQRo7DRAc_b84RoyOHfdsGccefRzpULVf5SLpdXr6F3Oi-7jHzFrNwg4OYkBxksPcO3e54qpso3aqgB1u0000]--></g></svg>