<?xml version="1.0" encoding="us-ascii" standalone="no"?><svg xmlns="http://www.w3.org/2000/svg" xmlns:xlink="http://www.w3.org/1999/xlink" contentStyleType="text/css" height="1330px" preserveAspectRatio="none" style="width:1352px;height:1330px;background:#FFFFFF;" version="1.1" viewBox="0 0 1352 1330" width="1352px" zoomAndPan="magnify"><defs/><g><rect fill="#FFFFFF" height="116.5313" style="stroke:#181818;stroke-width:1.0;" width="10" x="359" y="431.7578"/><rect fill="#FFFFFF" height="116.5313" style="stroke:#181818;stroke-width:1.0;" width="10" x="359" y="620.5547"/><rect fill="#FFFFFF" height="233.0625" style="stroke:#181818;stroke-width:1.0;" width="10" x="359" y="809.3516"/><rect fill="#FFFFFF" height="116.5313" style="stroke:#181818;stroke-width:1.0;" width="10" x="359" y="1114.6797"/><rect fill="#FFFFFF" height="87.3984" style="stroke:#181818;stroke-width:1.0;" width="10" x="536" y="155.5625"/><rect fill="#FFFFFF" height="87.3984" style="stroke:#181818;stroke-width:1.0;" width="10" x="536" y="272.0938"/><rect fill="#FFFFFF" height="87.3984" style="stroke:#181818;stroke-width:1.0;" width="10" x="706.5" y="460.8906"/><rect fill="#FFFFFF" height="87.3984" style="stroke:#181818;stroke-width:1.0;" width="10" x="885.5" y="649.6875"/><rect fill="#FFFFFF" height="87.3984" style="stroke:#181818;stroke-width:1.0;" width="10" x="1074" y="838.4844"/><rect fill="#FFFFFF" height="87.3984" style="stroke:#181818;stroke-width:1.0;" width="10" x="1074" y="955.0156"/><rect fill="#FFFFFF" height="87.3984" style="stroke:#181818;stroke-width:1.0;" width="10" x="1074" y="1143.8125"/><rect fill="#FFFFFF" height="29.1328" style="stroke:#181818;stroke-width:1.0;" width="10" x="1275" y="184.6953"/><rect fill="#FFFFFF" height="29.1328" style="stroke:#181818;stroke-width:1.0;" width="10" x="1275" y="301.2266"/><rect fill="#FFFFFF" height="29.1328" style="stroke:#181818;stroke-width:1.0;" width="10" x="1275" y="490.0234"/><rect fill="#FFFFFF" height="29.1328" style="stroke:#181818;stroke-width:1.0;" width="10" x="1275" y="678.8203"/><rect fill="#FFFFFF" height="29.1328" style="stroke:#181818;stroke-width:1.0;" width="10" x="1275" y="867.6172"/><rect fill="#FFFFFF" height="29.1328" style="stroke:#181818;stroke-width:1.0;" width="10" x="1275" y="984.1484"/><rect fill="#FFFFFF" height="29.1328" style="stroke:#181818;stroke-width:1.0;" width="10" x="1275" y="1172.9453"/><line style="stroke:#181818;stroke-width:0.5;stroke-dasharray:5.0,5.0;" x1="59" x2="59" y1="81.2969" y2="1249.2109"/><line style="stroke:#181818;stroke-width:0.5;stroke-dasharray:5.0,5.0;" x1="146" x2="146" y1="81.2969" y2="1249.2109"/><line style="stroke:#181818;stroke-width:0.5;stroke-dasharray:5.0,5.0;" x1="363.5" x2="363.5" y1="81.2969" y2="1249.2109"/><line style="stroke:#181818;stroke-width:0.5;stroke-dasharray:5.0,5.0;" x1="540.5" x2="540.5" y1="81.2969" y2="1249.2109"/><line style="stroke:#181818;stroke-width:0.5;stroke-dasharray:5.0,5.0;" x1="711.5" x2="711.5" y1="81.2969" y2="1249.2109"/><line style="stroke:#181818;stroke-width:0.5;stroke-dasharray:5.0,5.0;" x1="890.5" x2="890.5" y1="81.2969" y2="1249.2109"/><line style="stroke:#181818;stroke-width:0.5;stroke-dasharray:5.0,5.0;" x1="1078.5" x2="1078.5" y1="81.2969" y2="1249.2109"/><line style="stroke:#181818;stroke-width:0.5;stroke-dasharray:5.0,5.0;" x1="1280" x2="1280" y1="81.2969" y2="1249.2109"/><text fill="#000000" font-family="sans-serif" font-size="14" lengthAdjust="spacing" textLength="102" x="5" y="77.9951">Administrador</text><ellipse cx="59" cy="13.5" fill="#E2E2F0" rx="8" ry="8" style="stroke:#181818;stroke-width:0.5;"/><path d="M59,21.5 L59,48.5 M46,29.5 L72,29.5 M59,48.5 L46,63.5 M59,48.5 L72,63.5 " fill="none" style="stroke:#181818;stroke-width:0.5;"/><text fill="#000000" font-family="sans-serif" font-size="14" lengthAdjust="spacing" textLength="102" x="5" y="1261.2061">Administrador</text><ellipse cx="59" cy="1273.0078" fill="#E2E2F0" rx="8" ry="8" style="stroke:#181818;stroke-width:0.5;"/><path d="M59,1281.0078 L59,1308.0078 M46,1289.0078 L72,1289.0078 M59,1308.0078 L46,1323.0078 M59,1308.0078 L72,1323.0078 " fill="none" style="stroke:#181818;stroke-width:0.5;"/><text fill="#000000" font-family="sans-serif" font-size="14" lengthAdjust="spacing" textLength="40" x="123" y="77.9951">Aluno</text><ellipse cx="146" cy="13.5" fill="#E2E2F0" rx="8" ry="8" style="stroke:#181818;stroke-width:0.5;"/><path d="M146,21.5 L146,48.5 M133,29.5 L159,29.5 M146,48.5 L133,63.5 M146,48.5 L159,63.5 " fill="none" style="stroke:#181818;stroke-width:0.5;"/><text fill="#000000" font-family="sans-serif" font-size="14" lengthAdjust="spacing" textLength="40" x="123" y="1261.2061">Aluno</text><ellipse cx="146" cy="1273.0078" fill="#E2E2F0" rx="8" ry="8" style="stroke:#181818;stroke-width:0.5;"/><path d="M146,1281.0078 L146,1308.0078 M133,1289.0078 L159,1289.0078 M146,1308.0078 L133,1323.0078 M146,1308.0078 L159,1323.0078 " fill="none" style="stroke:#181818;stroke-width:0.5;"/><text fill="#000000" font-family="sans-serif" font-size="14" lengthAdjust="spacing" textLength="143" x="289.5" y="77.9951">Interface do Usu&#225;rio</text><path d="M343.5,37 L343.5,61 M343.5,49 L360.5,49 " fill="none" style="stroke:#181818;stroke-width:0.5;"/><ellipse cx="372.5" cy="49" fill="#E2E2F0" rx="12" ry="12" style="stroke:#181818;stroke-width:0.5;"/><text fill="#000000" font-family="sans-serif" font-size="14" lengthAdjust="spacing" textLength="143" x="289.5" y="1261.2061">Interface do Usu&#225;rio</text><path d="M343.5,1268.5078 L343.5,1292.5078 M343.5,1280.5078 L360.5,1280.5078 " fill="none" style="stroke:#181818;stroke-width:0.5;"/><ellipse cx="372.5" cy="1280.5078" fill="#E2E2F0" rx="12" ry="12" style="stroke:#181818;stroke-width:0.5;"/><text fill="#000000" font-family="sans-serif" font-size="14" lengthAdjust="spacing" textLength="179" x="448.5" y="77.9951">Sistema de Autentica&#231;&#227;o</text><ellipse cx="541" cy="49" fill="#E2E2F0" rx="12" ry="12" style="stroke:#181818;stroke-width:0.5;"/><polygon fill="#181818" points="537,37,543,32,541,37,543,42,537,37" style="stroke:#181818;stroke-width:1.0;"/><text fill="#000000" font-family="sans-serif" font-size="14" lengthAdjust="spacing" textLength="179" x="448.5" y="1261.2061">Sistema de Autentica&#231;&#227;o</text><ellipse cx="541" cy="1280.5078" fill="#E2E2F0" rx="12" ry="12" style="stroke:#181818;stroke-width:0.5;"/><polygon fill="#181818" points="537,1268.5078,543,1263.5078,541,1268.5078,543,1273.5078,537,1268.5078" style="stroke:#181818;stroke-width:1.0;"/><text fill="#000000" font-family="sans-serif" font-size="14" lengthAdjust="spacing" textLength="130" x="643.5" y="77.9951">Cadastro de Faces</text><ellipse cx="711.5" cy="49" fill="#E2E2F0" rx="12" ry="12" style="stroke:#181818;stroke-width:0.5;"/><line style="stroke:#181818;stroke-width:0.5;" x1="699.5" x2="723.5" y1="63" y2="63"/><text fill="#000000" font-family="sans-serif" font-size="14" lengthAdjust="spacing" textLength="130" x="643.5" y="1261.2061">Cadastro de Faces</text><ellipse cx="711.5" cy="1280.5078" fill="#E2E2F0" rx="12" ry="12" style="stroke:#181818;stroke-width:0.5;"/><line style="stroke:#181818;stroke-width:0.5;" x1="699.5" x2="723.5" y1="1294.5078" y2="1294.5078"/><text fill="#000000" font-family="sans-serif" font-size="14" lengthAdjust="spacing" textLength="196" x="789.5" y="77.9951">Gerenciamento de Usu&#225;rios</text><ellipse cx="890.5" cy="49" fill="#E2E2F0" rx="12" ry="12" style="stroke:#181818;stroke-width:0.5;"/><line style="stroke:#181818;stroke-width:0.5;" x1="878.5" x2="902.5" y1="63" y2="63"/><text fill="#000000" font-family="sans-serif" font-size="14" lengthAdjust="spacing" textLength="196" x="789.5" y="1261.2061">Gerenciamento de Usu&#225;rios</text><ellipse cx="890.5" cy="1280.5078" fill="#E2E2F0" rx="12" ry="12" style="stroke:#181818;stroke-width:0.5;"/><line style="stroke:#181818;stroke-width:0.5;" x1="878.5" x2="902.5" y1="1294.5078" y2="1294.5078"/><text fill="#000000" font-family="sans-serif" font-size="14" lengthAdjust="spacing" textLength="149" x="1001.5" y="77.9951">Sistema de Presen&#231;a</text><ellipse cx="1079" cy="49" fill="#E2E2F0" rx="12" ry="12" style="stroke:#181818;stroke-width:0.5;"/><line style="stroke:#181818;stroke-width:0.5;" x1="1067" x2="1091" y1="63" y2="63"/><text fill="#000000" font-family="sans-serif" font-size="14" lengthAdjust="spacing" textLength="149" x="1001.5" y="1261.2061">Sistema de Presen&#231;a</text><ellipse cx="1079" cy="1280.5078" fill="#E2E2F0" rx="12" ry="12" style="stroke:#181818;stroke-width:0.5;"/><line style="stroke:#181818;stroke-width:0.5;" x1="1067" x2="1091" y1="1294.5078" y2="1294.5078"/><text fill="#000000" font-family="sans-serif" font-size="14" lengthAdjust="spacing" textLength="114" x="1220" y="77.9951">Banco de Dados</text><path d="M1262,29 C1262,19 1280,19 1280,19 C1280,19 1298,19 1298,29 L1298,55 C1298,65 1280,65 1280,65 C1280,65 1262,65 1262,55 L1262,29 " fill="#E2E2F0" style="stroke:#181818;stroke-width:1.5;"/><path d="M1262,29 C1262,39 1280,39 1280,39 C1280,39 1298,39 1298,29 " fill="none" style="stroke:#181818;stroke-width:1.5;"/><text fill="#000000" font-family="sans-serif" font-size="14" lengthAdjust="spacing" textLength="114" x="1220" y="1261.2061">Banco de Dados</text><path d="M1262,1274.5078 C1262,1264.5078 1280,1264.5078 1280,1264.5078 C1280,1264.5078 1298,1264.5078 1298,1274.5078 L1298,1300.5078 C1298,1310.5078 1280,1310.5078 1280,1310.5078 C1280,1310.5078 1262,1310.5078 1262,1300.5078 L1262,1274.5078 " fill="#E2E2F0" style="stroke:#181818;stroke-width:1.5;"/><path d="M1262,1274.5078 C1262,1284.5078 1280,1284.5078 1280,1284.5078 C1280,1284.5078 1298,1284.5078 1298,1274.5078 " fill="none" style="stroke:#181818;stroke-width:1.5;"/><rect fill="#FFFFFF" height="116.5313" style="stroke:#181818;stroke-width:1.0;" width="10" x="359" y="431.7578"/><rect fill="#FFFFFF" height="116.5313" style="stroke:#181818;stroke-width:1.0;" width="10" x="359" y="620.5547"/><rect fill="#FFFFFF" height="233.0625" style="stroke:#181818;stroke-width:1.0;" width="10" x="359" y="809.3516"/><rect fill="#FFFFFF" height="116.5313" style="stroke:#181818;stroke-width:1.0;" width="10" x="359" y="1114.6797"/><rect fill="#FFFFFF" height="87.3984" style="stroke:#181818;stroke-width:1.0;" width="10" x="536" y="155.5625"/><rect fill="#FFFFFF" height="87.3984" style="stroke:#181818;stroke-width:1.0;" width="10" x="536" y="272.0938"/><rect fill="#FFFFFF" height="87.3984" style="stroke:#181818;stroke-width:1.0;" width="10" x="706.5" y="460.8906"/><rect fill="#FFFFFF" height="87.3984" style="stroke:#181818;stroke-width:1.0;" width="10" x="885.5" y="649.6875"/><rect fill="#FFFFFF" height="87.3984" style="stroke:#181818;stroke-width:1.0;" width="10" x="1074" y="838.4844"/><rect fill="#FFFFFF" height="87.3984" style="stroke:#181818;stroke-width:1.0;" width="10" x="1074" y="955.0156"/><rect fill="#FFFFFF" height="87.3984" style="stroke:#181818;stroke-width:1.0;" width="10" x="1074" y="1143.8125"/><rect fill="#FFFFFF" height="29.1328" style="stroke:#181818;stroke-width:1.0;" width="10" x="1275" y="184.6953"/><rect fill="#FFFFFF" height="29.1328" style="stroke:#181818;stroke-width:1.0;" width="10" x="1275" y="301.2266"/><rect fill="#FFFFFF" height="29.1328" style="stroke:#181818;stroke-width:1.0;" width="10" x="1275" y="490.0234"/><rect fill="#FFFFFF" height="29.1328" style="stroke:#181818;stroke-width:1.0;" width="10" x="1275" y="678.8203"/><rect fill="#FFFFFF" height="29.1328" style="stroke:#181818;stroke-width:1.0;" width="10" x="1275" y="867.6172"/><rect fill="#FFFFFF" height="29.1328" style="stroke:#181818;stroke-width:1.0;" width="10" x="1275" y="984.1484"/><rect fill="#FFFFFF" height="29.1328" style="stroke:#181818;stroke-width:1.0;" width="10" x="1275" y="1172.9453"/><rect fill="#EEEEEE" height="3" style="stroke:#EEEEEE;stroke-width:1.0;" width="1345" x="0" y="111.8633"/><line style="stroke:#000000;stroke-width:1.0;" x1="0" x2="1345" y1="111.8633" y2="111.8633"/><line style="stroke:#000000;stroke-width:1.0;" x1="0" x2="1345" y1="114.8633" y2="114.8633"/><rect fill="#EEEEEE" height="23.1328" style="stroke:#000000;stroke-width:2.0;" width="280" x="532.5" y="101.2969"/><text fill="#000000" font-family="sans-serif" font-size="13" font-weight="bold" lengthAdjust="spacing" textLength="261" x="538.5" y="117.3638">Registro e Login do Administrador</text><polygon fill="#181818" points="524,151.5625,534,155.5625,524,159.5625,528,155.5625" style="stroke:#181818;stroke-width:1.0;"/><line style="stroke:#181818;stroke-width:1.0;" x1="59" x2="530" y1="155.5625" y2="155.5625"/><text fill="#000000" font-family="sans-serif" font-size="13" lengthAdjust="spacing" textLength="58" x="66" y="150.4966">Registrar</text><polygon fill="#181818" points="1263,180.6953,1273,184.6953,1263,188.6953,1267,184.6953" style="stroke:#181818;stroke-width:1.0;"/><line style="stroke:#181818;stroke-width:1.0;" x1="546" x2="1269" y1="184.6953" y2="184.6953"/><text fill="#000000" font-family="sans-serif" font-size="13" lengthAdjust="spacing" textLength="124" x="553" y="179.6294">Salva Novo Usu&#225;rio</text><polygon fill="#181818" points="557,209.8281,547,213.8281,557,217.8281,553,213.8281" style="stroke:#181818;stroke-width:1.0;"/><line style="stroke:#181818;stroke-width:1.0;stroke-dasharray:2.0,2.0;" x1="551" x2="1279" y1="213.8281" y2="213.8281"/><text fill="#000000" font-family="sans-serif" font-size="13" lengthAdjust="spacing" textLength="82" x="563" y="208.7622">Confirma&#231;&#227;o</text><polygon fill="#181818" points="70,238.9609,60,242.9609,70,246.9609,66,242.9609" style="stroke:#181818;stroke-width:1.0;"/><line style="stroke:#181818;stroke-width:1.0;stroke-dasharray:2.0,2.0;" x1="64" x2="540" y1="242.9609" y2="242.9609"/><text fill="#000000" font-family="sans-serif" font-size="13" lengthAdjust="spacing" textLength="159" x="76" y="237.895">Confirma&#231;&#227;o de Registro</text><polygon fill="#181818" points="524,268.0938,534,272.0938,524,276.0938,528,272.0938" style="stroke:#181818;stroke-width:1.0;"/><line style="stroke:#181818;stroke-width:1.0;" x1="59" x2="530" y1="272.0938" y2="272.0938"/><text fill="#000000" font-family="sans-serif" font-size="13" lengthAdjust="spacing" textLength="34" x="66" y="267.0278">Login</text><polygon fill="#181818" points="1263,297.2266,1273,301.2266,1263,305.2266,1267,301.2266" style="stroke:#181818;stroke-width:1.0;"/><line style="stroke:#181818;stroke-width:1.0;" x1="546" x2="1269" y1="301.2266" y2="301.2266"/><text fill="#000000" font-family="sans-serif" font-size="13" lengthAdjust="spacing" textLength="126" x="553" y="296.1606">Verifica Credenciais</text><polygon fill="#181818" points="557,326.3594,547,330.3594,557,334.3594,553,330.3594" style="stroke:#181818;stroke-width:1.0;"/><line style="stroke:#181818;stroke-width:1.0;stroke-dasharray:2.0,2.0;" x1="551" x2="1279" y1="330.3594" y2="330.3594"/><text fill="#000000" font-family="sans-serif" font-size="13" lengthAdjust="spacing" textLength="82" x="563" y="325.2935">Confirma&#231;&#227;o</text><polygon fill="#181818" points="70,355.4922,60,359.4922,70,363.4922,66,359.4922" style="stroke:#181818;stroke-width:1.0;"/><line style="stroke:#181818;stroke-width:1.0;stroke-dasharray:2.0,2.0;" x1="64" x2="540" y1="359.4922" y2="359.4922"/><text fill="#000000" font-family="sans-serif" font-size="13" lengthAdjust="spacing" textLength="140" x="76" y="354.4263">Confirma&#231;&#227;o de Login</text><rect fill="#EEEEEE" height="3" style="stroke:#EEEEEE;stroke-width:1.0;" width="1345" x="0" y="388.0586"/><line style="stroke:#000000;stroke-width:1.0;" x1="0" x2="1345" y1="388.0586" y2="388.0586"/><line style="stroke:#000000;stroke-width:1.0;" x1="0" x2="1345" y1="391.0586" y2="391.0586"/><rect fill="#EEEEEE" height="23.1328" style="stroke:#000000;stroke-width:2.0;" width="310" x="517.5" y="377.4922"/><text fill="#000000" font-family="sans-serif" font-size="13" font-weight="bold" lengthAdjust="spacing" textLength="291" x="523.5" y="393.5591">Cadastro de Faces pelo Administrador</text><polygon fill="#181818" points="347,427.7578,357,431.7578,347,435.7578,351,431.7578" style="stroke:#181818;stroke-width:1.0;"/><line style="stroke:#181818;stroke-width:1.0;" x1="59" x2="353" y1="431.7578" y2="431.7578"/><text fill="#000000" font-family="sans-serif" font-size="13" lengthAdjust="spacing" textLength="169" x="66" y="426.6919">Acessa Cadastro de Faces</text><polygon fill="#181818" points="694.5,456.8906,704.5,460.8906,694.5,464.8906,698.5,460.8906" style="stroke:#181818;stroke-width:1.0;"/><line style="stroke:#181818;stroke-width:1.0;" x1="369" x2="700.5" y1="460.8906" y2="460.8906"/><text fill="#000000" font-family="sans-serif" font-size="13" lengthAdjust="spacing" textLength="209" x="376" y="455.8247">Solicita&#231;&#227;o para Cadastrar Faces</text><polygon fill="#181818" points="1263,486.0234,1273,490.0234,1263,494.0234,1267,490.0234" style="stroke:#181818;stroke-width:1.0;"/><line style="stroke:#181818;stroke-width:1.0;" x1="716.5" x2="1269" y1="490.0234" y2="490.0234"/><text fill="#000000" font-family="sans-serif" font-size="13" lengthAdjust="spacing" textLength="134" x="723.5" y="484.9575">Salva Dados da Face</text><polygon fill="#181818" points="727.5,515.1563,717.5,519.1563,727.5,523.1563,723.5,519.1563" style="stroke:#181818;stroke-width:1.0;"/><line style="stroke:#181818;stroke-width:1.0;stroke-dasharray:2.0,2.0;" x1="721.5" x2="1279" y1="519.1563" y2="519.1563"/><text fill="#000000" font-family="sans-serif" font-size="13" lengthAdjust="spacing" textLength="82" x="733.5" y="514.0903">Confirma&#231;&#227;o</text><polygon fill="#181818" points="375,544.2891,365,548.2891,375,552.2891,371,548.2891" style="stroke:#181818;stroke-width:1.0;"/><line style="stroke:#181818;stroke-width:1.0;stroke-dasharray:2.0,2.0;" x1="369" x2="710.5" y1="548.2891" y2="548.2891"/><text fill="#000000" font-family="sans-serif" font-size="13" lengthAdjust="spacing" textLength="164" x="381" y="543.2231">Confirma&#231;&#227;o de Cadastro</text><rect fill="#EEEEEE" height="3" style="stroke:#EEEEEE;stroke-width:1.0;" width="1345" x="0" y="576.8555"/><line style="stroke:#000000;stroke-width:1.0;" x1="0" x2="1345" y1="576.8555" y2="576.8555"/><line style="stroke:#000000;stroke-width:1.0;" x1="0" x2="1345" y1="579.8555" y2="579.8555"/><rect fill="#EEEEEE" height="23.1328" style="stroke:#000000;stroke-width:2.0;" width="354" x="495.5" y="566.2891"/><text fill="#000000" font-family="sans-serif" font-size="13" font-weight="bold" lengthAdjust="spacing" textLength="335" x="501.5" y="582.356">Visualiza&#231;&#227;o de Usu&#225;rios pelo Administrador</text><polygon fill="#181818" points="347,616.5547,357,620.5547,347,624.5547,351,620.5547" style="stroke:#181818;stroke-width:1.0;"/><line style="stroke:#181818;stroke-width:1.0;" x1="59" x2="353" y1="620.5547" y2="620.5547"/><text fill="#000000" font-family="sans-serif" font-size="13" lengthAdjust="spacing" textLength="159" x="66" y="615.4888">Acessa Lista de Usu&#225;rios</text><polygon fill="#181818" points="873.5,645.6875,883.5,649.6875,873.5,653.6875,877.5,649.6875" style="stroke:#181818;stroke-width:1.0;"/><line style="stroke:#181818;stroke-width:1.0;" x1="369" x2="879.5" y1="649.6875" y2="649.6875"/><text fill="#000000" font-family="sans-serif" font-size="13" lengthAdjust="spacing" textLength="104" x="376" y="644.6216">Solicita Usu&#225;rios</text><polygon fill="#181818" points="1263,674.8203,1273,678.8203,1263,682.8203,1267,678.8203" style="stroke:#181818;stroke-width:1.0;"/><line style="stroke:#181818;stroke-width:1.0;" x1="895.5" x2="1269" y1="678.8203" y2="678.8203"/><text fill="#000000" font-family="sans-serif" font-size="13" lengthAdjust="spacing" textLength="115" x="902.5" y="673.7544">Consulta Usu&#225;rios</text><polygon fill="#181818" points="906.5,703.9531,896.5,707.9531,906.5,711.9531,902.5,707.9531" style="stroke:#181818;stroke-width:1.0;"/><line style="stroke:#181818;stroke-width:1.0;stroke-dasharray:2.0,2.0;" x1="900.5" x2="1279" y1="707.9531" y2="707.9531"/><text fill="#000000" font-family="sans-serif" font-size="13" lengthAdjust="spacing" textLength="109" x="912.5" y="702.8872">Lista de Usu&#225;rios</text><polygon fill="#181818" points="375,733.0859,365,737.0859,375,741.0859,371,737.0859" style="stroke:#181818;stroke-width:1.0;"/><line style="stroke:#181818;stroke-width:1.0;stroke-dasharray:2.0,2.0;" x1="369" x2="889.5" y1="737.0859" y2="737.0859"/><text fill="#000000" font-family="sans-serif" font-size="13" lengthAdjust="spacing" textLength="109" x="381" y="732.02">Lista de Usu&#225;rios</text><rect fill="#EEEEEE" height="3" style="stroke:#EEEEEE;stroke-width:1.0;" width="1345" x="0" y="765.6523"/><line style="stroke:#000000;stroke-width:1.0;" x1="0" x2="1345" y1="765.6523" y2="765.6523"/><line style="stroke:#000000;stroke-width:1.0;" x1="0" x2="1345" y1="768.6523" y2="768.6523"/><rect fill="#EEEEEE" height="23.1328" style="stroke:#000000;stroke-width:2.0;" width="382" x="481.5" y="755.0859"/><text fill="#000000" font-family="sans-serif" font-size="13" font-weight="bold" lengthAdjust="spacing" textLength="363" x="487.5" y="771.1528">Gerenciamento de Presen&#231;a pelo Administrador</text><polygon fill="#181818" points="347,805.3516,357,809.3516,347,813.3516,351,809.3516" style="stroke:#181818;stroke-width:1.0;"/><line style="stroke:#181818;stroke-width:1.0;" x1="59" x2="353" y1="809.3516" y2="809.3516"/><text fill="#000000" font-family="sans-serif" font-size="13" lengthAdjust="spacing" textLength="163" x="66" y="804.2856">Acessa Lista de Presen&#231;a</text><polygon fill="#181818" points="1062,834.4844,1072,838.4844,1062,842.4844,1066,838.4844" style="stroke:#181818;stroke-width:1.0;"/><line style="stroke:#181818;stroke-width:1.0;" x1="369" x2="1068" y1="838.4844" y2="838.4844"/><text fill="#000000" font-family="sans-serif" font-size="13" lengthAdjust="spacing" textLength="115" x="376" y="833.4185">Solicita Presen&#231;as</text><polygon fill="#181818" points="1263,863.6172,1273,867.6172,1263,871.6172,1267,867.6172" style="stroke:#181818;stroke-width:1.0;"/><line style="stroke:#181818;stroke-width:1.0;" x1="1084" x2="1269" y1="867.6172" y2="867.6172"/><text fill="#000000" font-family="sans-serif" font-size="13" lengthAdjust="spacing" textLength="126" x="1091" y="862.5513">Consulta Presen&#231;as</text><polygon fill="#181818" points="1095,892.75,1085,896.75,1095,900.75,1091,896.75" style="stroke:#181818;stroke-width:1.0;"/><line style="stroke:#181818;stroke-width:1.0;stroke-dasharray:2.0,2.0;" x1="1089" x2="1279" y1="896.75" y2="896.75"/><text fill="#000000" font-family="sans-serif" font-size="13" lengthAdjust="spacing" textLength="120" x="1101" y="891.6841">Lista de Presen&#231;as</text><polygon fill="#181818" points="380,921.8828,370,925.8828,380,929.8828,376,925.8828" style="stroke:#181818;stroke-width:1.0;"/><line style="stroke:#181818;stroke-width:1.0;stroke-dasharray:2.0,2.0;" x1="374" x2="1078" y1="925.8828" y2="925.8828"/><text fill="#000000" font-family="sans-serif" font-size="13" lengthAdjust="spacing" textLength="120" x="386" y="920.8169">Lista de Presen&#231;as</text><polygon fill="#181818" points="1062,951.0156,1072,955.0156,1062,959.0156,1066,955.0156" style="stroke:#181818;stroke-width:1.0;"/><line style="stroke:#181818;stroke-width:1.0;" x1="369" x2="1068" y1="955.0156" y2="955.0156"/><text fill="#000000" font-family="sans-serif" font-size="13" lengthAdjust="spacing" textLength="168" x="376" y="949.9497">Altera Presen&#231;a (opcional)</text><polygon fill="#181818" points="1263,980.1484,1273,984.1484,1263,988.1484,1267,984.1484" style="stroke:#181818;stroke-width:1.0;"/><line style="stroke:#181818;stroke-width:1.0;" x1="1084" x2="1269" y1="984.1484" y2="984.1484"/><text fill="#000000" font-family="sans-serif" font-size="13" lengthAdjust="spacing" textLength="114" x="1091" y="979.0825">Atualiza Presen&#231;a</text><polygon fill="#181818" points="1095,1009.2813,1085,1013.2813,1095,1017.2813,1091,1013.2813" style="stroke:#181818;stroke-width:1.0;"/><line style="stroke:#181818;stroke-width:1.0;stroke-dasharray:2.0,2.0;" x1="1089" x2="1279" y1="1013.2813" y2="1013.2813"/><text fill="#000000" font-family="sans-serif" font-size="13" lengthAdjust="spacing" textLength="167" x="1101" y="1008.2153">Confirma&#231;&#227;o de Altera&#231;&#227;o</text><polygon fill="#181818" points="375,1038.4141,365,1042.4141,375,1046.4141,371,1042.4141" style="stroke:#181818;stroke-width:1.0;"/><line style="stroke:#181818;stroke-width:1.0;stroke-dasharray:2.0,2.0;" x1="369" x2="1078" y1="1042.4141" y2="1042.4141"/><text fill="#000000" font-family="sans-serif" font-size="13" lengthAdjust="spacing" textLength="167" x="381" y="1037.3481">Confirma&#231;&#227;o de Altera&#231;&#227;o</text><rect fill="#EEEEEE" height="3" style="stroke:#EEEEEE;stroke-width:1.0;" width="1345" x="0" y="1070.9805"/><line style="stroke:#000000;stroke-width:1.0;" x1="0" x2="1345" y1="1070.9805" y2="1070.9805"/><line style="stroke:#000000;stroke-width:1.0;" x1="0" x2="1345" y1="1073.9805" y2="1073.9805"/><rect fill="#EEEEEE" height="23.1328" style="stroke:#000000;stroke-width:2.0;" width="273" x="536" y="1060.4141"/><text fill="#000000" font-family="sans-serif" font-size="13" font-weight="bold" lengthAdjust="spacing" textLength="254" x="542" y="1076.481">Marca&#231;&#227;o de Presen&#231;a pelo Aluno</text><polygon fill="#181818" points="347,1110.6797,357,1114.6797,347,1118.6797,351,1114.6797" style="stroke:#181818;stroke-width:1.0;"/><line style="stroke:#181818;stroke-width:1.0;" x1="146" x2="353" y1="1114.6797" y2="1114.6797"/><text fill="#000000" font-family="sans-serif" font-size="13" lengthAdjust="spacing" textLength="194" x="153" y="1109.6138">Acessa Marca&#231;&#227;o de Presen&#231;a</text><polygon fill="#181818" points="1062,1139.8125,1072,1143.8125,1062,1147.8125,1066,1143.8125" style="stroke:#181818;stroke-width:1.0;"/><line style="stroke:#181818;stroke-width:1.0;" x1="369" x2="1068" y1="1143.8125" y2="1143.8125"/><text fill="#000000" font-family="sans-serif" font-size="13" lengthAdjust="spacing" textLength="257" x="376" y="1138.7466">Marca Presen&#231;a (reconhecimento facial)</text><polygon fill="#181818" points="1263,1168.9453,1273,1172.9453,1263,1176.9453,1267,1172.9453" style="stroke:#181818;stroke-width:1.0;"/><line style="stroke:#181818;stroke-width:1.0;" x1="1084" x2="1269" y1="1172.9453" y2="1172.9453"/><text fill="#000000" font-family="sans-serif" font-size="13" lengthAdjust="spacing" textLength="116" x="1091" y="1167.8794">Registra Presen&#231;a</text><polygon fill="#181818" points="1095,1198.0781,1085,1202.0781,1095,1206.0781,1091,1202.0781" style="stroke:#181818;stroke-width:1.0;"/><line style="stroke:#181818;stroke-width:1.0;stroke-dasharray:2.0,2.0;" x1="1089" x2="1279" y1="1202.0781" y2="1202.0781"/><text fill="#000000" font-family="sans-serif" font-size="13" lengthAdjust="spacing" textLength="165" x="1101" y="1197.0122">Confirma&#231;&#227;o de Presen&#231;a</text><polygon fill="#181818" points="375,1227.2109,365,1231.2109,375,1235.2109,371,1231.2109" style="stroke:#181818;stroke-width:1.0;"/><line style="stroke:#181818;stroke-width:1.0;stroke-dasharray:2.0,2.0;" x1="369" x2="1078" y1="1231.2109" y2="1231.2109"/><text fill="#000000" font-family="sans-serif" font-size="13" lengthAdjust="spacing" textLength="165" x="381" y="1226.145">Confirma&#231;&#227;o de Presen&#231;a</text><!--SRC=[lLPBZjim3Dtx54HMxM8k4205d0Gj0aoBeeFCdYCfKm6E5CXoWFOsHHTpa5oi-iJwM4gQcGBTsHJV8_b8oaQYfOAMxhdWlLP8fMhGsxf1oEP93eAY-W6pZT1CxP0me1As_N3wfRYS0VQmtJH42gra1xC7myBs29H1EsWcD2TuUZdzzfx1H50szaaRuXLIDA6bnNmq_Brp7QtE4dm_CSK4uRWt1WSO4_6WxDWSeJq9u2IthuhrJ9nUqC7y6y66eiOdx1dCbYY82x0sadZovRff5WlunfwvIvV1lNpcmigHwGUBHPCRxZvabSz73dHQyoDgbakJlbZqSZs71-oE25_aCQeVqIQtvHhkYa0hANPSxNqB6ifIG1x4GjEa9rWhnLXvofEb_RUodLwlAFcHARup9bWfHbrZUV-VQ_OfNopOp4Cnld1WtIqZiTtCeJN-FPOSiKgpNDkDTSyMmeo3x3ZX-fpf0LLWGJNbo7SfUykdomqxK7G4DQKdILoJUXBcN70XyEYMelDyamCZXfNyaPlLxlZFo1AkWJU8Vs_ic95KrA_UBB4BDMpzCgfQnouOTVgXgzF59bp8fL97tf4BeSzgN8VNYobRKrpGuQRzbyu4aafdniixQKPmJ-GBT_puK6XUGqNHOvWogwdGCSHKspeav3QjgEtCDpV93Dx90-5IOFV-XifQxRUa9b-ji68tVVZQSXSLtegDdzfYT3wZ8X4_dHlxD-BcnJtaSt81UNLO72PLLZ7p4_ET4Uv7r_pfyDja7Z_cRvOvubuhSXLPb_WF]--></g></svg>